G04 #@! TF.FileFunction,Copper,L2,Bot,Signal*
%FSLAX46Y46*%
G04 Gerber Fmt 4.6, Leading zero omitted, Abs format (unit mm)*
G04 Created by KiCad (PCBNEW 4.0.4-1.fc24-product) date Wed May 17 20:52:56 2017*
%MOMM*%
%LPD*%
G01*
G04 APERTURE LIST*
%ADD10C,0.100000*%
%ADD11C,5.001260*%
%ADD12O,1.998980X1.501140*%
%ADD13R,1.524000X1.524000*%
%ADD14C,1.524000*%
%ADD15C,1.422400*%
%ADD16C,4.064000*%
%ADD17C,1.998980*%
%ADD18R,1.600000X3.000000*%
%ADD19C,2.000000*%
%ADD20C,1.000000*%
%ADD21C,1.300000*%
%ADD22C,0.600000*%
%ADD23C,0.400000*%
%ADD24C,1.000000*%
%ADD25C,1.500000*%
%ADD26C,0.300000*%
%ADD27C,0.250000*%
%ADD28C,0.200000*%
G04 APERTURE END LIST*
D10*
D11*
X77112000Y-116662400D03*
D12*
X78783320Y-104155440D03*
X78783320Y-106924040D03*
X78783320Y-109695180D03*
X78783320Y-101384300D03*
X78783320Y-98615700D03*
X75440680Y-108310880D03*
X78783320Y-90304820D03*
X78783320Y-93075960D03*
X78783320Y-95844560D03*
D11*
X77112000Y-83337600D03*
D12*
X75440680Y-105539740D03*
X75440680Y-102771140D03*
X75440680Y-100000000D03*
X75440680Y-97228860D03*
X75440680Y-94460260D03*
X75440680Y-91689120D03*
D13*
X95080000Y-123730000D03*
D14*
X95080000Y-126270000D03*
X92540000Y-123730000D03*
X92540000Y-126270000D03*
X90000000Y-123730000D03*
X90000000Y-126270000D03*
X87460000Y-123730000D03*
X87460000Y-126270000D03*
X84920000Y-123730000D03*
X84920000Y-126270000D03*
D13*
X95080000Y-73730000D03*
D14*
X95080000Y-76270000D03*
X92540000Y-73730000D03*
X92540000Y-76270000D03*
X90000000Y-73730000D03*
X90000000Y-76270000D03*
X87460000Y-73730000D03*
X87460000Y-76270000D03*
X84920000Y-73730000D03*
X84920000Y-76270000D03*
D15*
X104140000Y-83820000D03*
X104140000Y-78740000D03*
D16*
X75000000Y-75000000D03*
X75000000Y-125000000D03*
X125000000Y-125000000D03*
X125000000Y-75000000D03*
D13*
X125730000Y-97790000D03*
D14*
X125730000Y-100330000D03*
X123190000Y-97790000D03*
X123190000Y-100330000D03*
X120650000Y-97790000D03*
X120650000Y-100330000D03*
D17*
X119938800Y-111470440D03*
X126441200Y-106969560D03*
X119938800Y-106969560D03*
X126441200Y-111470440D03*
D18*
X114300000Y-104902000D03*
X115570000Y-104902000D03*
D19*
X122936000Y-94996000D03*
X122936000Y-92710000D03*
X109982000Y-84836000D03*
X111506000Y-86614000D03*
X109982000Y-88392000D03*
X111506000Y-90170000D03*
X111506000Y-93726000D03*
X109982000Y-91948000D03*
X112776000Y-95758000D03*
X114046000Y-93726000D03*
X122936000Y-90297000D03*
X121920000Y-82804000D03*
X113919000Y-79375000D03*
D20*
X92202000Y-84074000D03*
X84455000Y-78359000D03*
X88138000Y-80656020D03*
X109220000Y-120142000D03*
D21*
X114300000Y-111251978D03*
X120904000Y-115316000D03*
X120142000Y-121666000D03*
D20*
X102108000Y-117856000D03*
X112522000Y-103632000D03*
X104394000Y-111760000D03*
X100838000Y-119380000D03*
X103886000Y-102870000D03*
X89154000Y-107950000D03*
X86360000Y-93726000D03*
X97282000Y-90932000D03*
X106680000Y-98298000D03*
X96012000Y-99314000D03*
X88646000Y-99314000D03*
X84074000Y-113792000D03*
X88646000Y-117094000D03*
X94234000Y-117094000D03*
X72898000Y-113792000D03*
X72898000Y-87376000D03*
X83058000Y-87376000D03*
X104394000Y-108458000D03*
X92456000Y-99314000D03*
X102997000Y-105791000D03*
X96520000Y-111887000D03*
X96520000Y-95377000D03*
X103124000Y-87756996D03*
X104394000Y-89027000D03*
D22*
X101219000Y-89789000D03*
X99187000Y-89917502D03*
D20*
X99187000Y-73406004D03*
X110744000Y-109982000D03*
D21*
X118084089Y-113419931D03*
D20*
X98044000Y-80772000D03*
X126111000Y-93472000D03*
X117438958Y-95324542D03*
X109599736Y-93604477D03*
X109474000Y-74676000D03*
X109474000Y-73406000D03*
X100076000Y-78486000D03*
X117094000Y-97790000D03*
X117094000Y-84582000D03*
X113284000Y-85852000D03*
X114808000Y-90170000D03*
X112208054Y-76005947D03*
X109224999Y-79748180D03*
X121920000Y-78232000D03*
X119634000Y-84836000D03*
X121158000Y-80264000D03*
X106700000Y-90900000D03*
X106426000Y-77939980D03*
X107696000Y-74676000D03*
X114438020Y-87600000D03*
X118618000Y-87375994D03*
X117348000Y-77724000D03*
X118872000Y-83058000D03*
D22*
X118393012Y-95024867D03*
X117800002Y-89300000D03*
X120842966Y-91939312D03*
X118691954Y-90008044D03*
X94994958Y-122323087D03*
X97278750Y-121154750D03*
X119179455Y-97620545D03*
X118900000Y-104100000D03*
X115438975Y-95364989D03*
X115062000Y-97282000D03*
X116233384Y-95270470D03*
X115862013Y-97282000D03*
X108331008Y-83820000D03*
X107882763Y-87804987D03*
X121029192Y-94844770D03*
X121044125Y-94044897D03*
X108458000Y-87249000D03*
X111147002Y-86995000D03*
X108712000Y-89281000D03*
X111125000Y-90297000D03*
X113157000Y-91567000D03*
X109855000Y-91694000D03*
X113284000Y-96000382D03*
X114896709Y-94098341D03*
X121031000Y-93218000D03*
X121666000Y-82169000D03*
X113919000Y-79502000D03*
D23*
X91702001Y-83574001D02*
X92202000Y-84074000D01*
X89571826Y-81443826D02*
X91702001Y-83574001D01*
X89571826Y-80369730D02*
X89571826Y-81443826D01*
X85162106Y-78359000D02*
X84455000Y-78359000D01*
X85840980Y-78359000D02*
X85162106Y-78359000D01*
X88138000Y-80656020D02*
X85840980Y-78359000D01*
X89571826Y-80369730D02*
X89285536Y-80656020D01*
X89285536Y-80656020D02*
X88845106Y-80656020D01*
X88845106Y-80656020D02*
X88138000Y-80656020D01*
D24*
X89662000Y-80518000D02*
X89571826Y-80427826D01*
X89571826Y-80427826D02*
X89571826Y-80369730D01*
X92540000Y-73730000D02*
X90000000Y-73730000D01*
D25*
X102108000Y-117856000D02*
X106934000Y-117856000D01*
X106934000Y-117856000D02*
X109220000Y-120142000D01*
D24*
X90000000Y-126270000D02*
X92540000Y-126270000D01*
X104394000Y-108458000D02*
X104394000Y-111760000D01*
X94234000Y-117094000D02*
X98552000Y-117094000D01*
X98552000Y-117094000D02*
X100838000Y-119380000D01*
X104394000Y-108458000D02*
X104394000Y-103378000D01*
X104394000Y-103378000D02*
X103886000Y-102870000D01*
X92456000Y-99314000D02*
X92456000Y-104648000D01*
X92456000Y-104648000D02*
X89154000Y-107950000D01*
X81280000Y-93726000D02*
X81280000Y-104902000D01*
X83058000Y-87376000D02*
X83058000Y-91948000D01*
X83058000Y-91948000D02*
X81280000Y-93726000D01*
X87376000Y-91694000D02*
X83058000Y-87376000D01*
X91059000Y-95377000D02*
X87376000Y-91694000D01*
X87376000Y-91694000D02*
X87376000Y-92710000D01*
X87376000Y-92710000D02*
X86360000Y-93726000D01*
X96520000Y-95377000D02*
X96520000Y-91694000D01*
X96520000Y-91694000D02*
X97282000Y-90932000D01*
X102997000Y-105791000D02*
X102997000Y-101981000D01*
X102997000Y-101981000D02*
X106680000Y-98298000D01*
X92456000Y-99314000D02*
X96012000Y-99314000D01*
X92456000Y-99314000D02*
X88646000Y-99314000D01*
X88646000Y-117094000D02*
X87376000Y-117094000D01*
X87376000Y-117094000D02*
X84074000Y-113792000D01*
X94234000Y-117094000D02*
X88646000Y-117094000D01*
X96520000Y-111887000D02*
X96520000Y-114808000D01*
X96520000Y-114808000D02*
X94234000Y-117094000D01*
X72898000Y-87376000D02*
X72898000Y-113792000D01*
X83058000Y-87376000D02*
X72898000Y-87376000D01*
X96520000Y-95377000D02*
X91059000Y-95377000D01*
X102997000Y-105791000D02*
X102997000Y-107061000D01*
X102997000Y-107061000D02*
X104394000Y-108458000D01*
X96520000Y-95377000D02*
X96393000Y-95377000D01*
X96393000Y-95377000D02*
X92456000Y-99314000D01*
D23*
X101090498Y-89917502D02*
X101219000Y-89789000D01*
X99187000Y-89917502D02*
X101090498Y-89917502D01*
D24*
X98044000Y-74549004D02*
X97224996Y-73730000D01*
X97224996Y-73730000D02*
X95080000Y-73730000D01*
D25*
X118084089Y-113419931D02*
X118084089Y-122707911D01*
X118084089Y-122707911D02*
X115062000Y-125730000D01*
X115062000Y-125730000D02*
X96901000Y-125730000D01*
X96901000Y-125730000D02*
X96393000Y-126238000D01*
X96393000Y-126238000D02*
X95112000Y-126238000D01*
X95112000Y-126238000D02*
X95080000Y-126270000D01*
D24*
X98687001Y-73906003D02*
X99187000Y-73406004D01*
X98044000Y-80772000D02*
X98044000Y-74549004D01*
X98044000Y-74549004D02*
X98687001Y-73906003D01*
D25*
X118084089Y-113419931D02*
X113474825Y-113419931D01*
X113474825Y-113419931D02*
X110744000Y-110689106D01*
X110744000Y-110689106D02*
X110744000Y-109982000D01*
D23*
X121920000Y-97340238D02*
X120404303Y-95824541D01*
X120650000Y-100330000D02*
X121920000Y-99060000D01*
X114808000Y-90170000D02*
X116938959Y-92300959D01*
X120404303Y-95824541D02*
X117938957Y-95824541D01*
X121920000Y-99060000D02*
X121920000Y-97340238D01*
X117938957Y-95824541D02*
X117438958Y-95324542D01*
X116938959Y-94824543D02*
X117438958Y-95324542D01*
X116938959Y-92300959D02*
X116938959Y-94824543D01*
D26*
X109474000Y-73406000D02*
X109474000Y-74676000D01*
D23*
X106986073Y-81280000D02*
X102870000Y-81280000D01*
X102870000Y-81280000D02*
X100076000Y-78486000D01*
X109224999Y-79748180D02*
X108517893Y-79748180D01*
X108517893Y-79748180D02*
X106986073Y-81280000D01*
X115570000Y-104902000D02*
X115570000Y-99314000D01*
X115570000Y-99314000D02*
X117094000Y-97790000D01*
X113284000Y-85852000D02*
X114554000Y-84582000D01*
X114554000Y-84582000D02*
X117094000Y-84582000D01*
X114808000Y-90170000D02*
X113284000Y-88646000D01*
X113284000Y-88646000D02*
X113284000Y-85852000D01*
X106426000Y-77232874D02*
X106426000Y-77939980D01*
X106426000Y-75946000D02*
X106426000Y-77232874D01*
X107696000Y-74676000D02*
X106426000Y-75946000D01*
X118618000Y-87375994D02*
X114662026Y-87375994D01*
X114662026Y-87375994D02*
X114438020Y-87600000D01*
X118872000Y-83058000D02*
X117348000Y-81534000D01*
X117348000Y-81534000D02*
X117348000Y-77724000D01*
D27*
X118093013Y-94724868D02*
X118393012Y-95024867D01*
X117800002Y-94431857D02*
X118093013Y-94724868D01*
X117800002Y-89300000D02*
X117800002Y-94431857D01*
X120623222Y-91939312D02*
X120842966Y-91939312D01*
X118691954Y-90008044D02*
X120623222Y-91939312D01*
X91406913Y-122323087D02*
X94570694Y-122323087D01*
X90000000Y-123730000D02*
X91406913Y-122323087D01*
X94570694Y-122323087D02*
X94994958Y-122323087D01*
X87460000Y-123730000D02*
X90035250Y-121154750D01*
X90035250Y-121154750D02*
X96854486Y-121154750D01*
X96854486Y-121154750D02*
X97278750Y-121154750D01*
X118900000Y-97900000D02*
X119179455Y-97620545D01*
X118900000Y-104100000D02*
X118900000Y-97900000D01*
X115062000Y-97282000D02*
X115062000Y-97028000D01*
X115062000Y-97028000D02*
X115316000Y-96774000D01*
X115316000Y-96774000D02*
X115316000Y-95487964D01*
X115316000Y-95487964D02*
X115438975Y-95364989D01*
X115862013Y-97282000D02*
X115824000Y-97243987D01*
X115824000Y-97243987D02*
X115824000Y-96012000D01*
X115824000Y-96012000D02*
X116233384Y-95602616D01*
X116233384Y-95602616D02*
X116233384Y-95270470D01*
X107882763Y-87804987D02*
X107823000Y-87745224D01*
X108585000Y-84073992D02*
X108331008Y-83820000D01*
X107823000Y-87745224D02*
X107823000Y-86233000D01*
X107823000Y-86233000D02*
X108585000Y-85471000D01*
X108585000Y-85471000D02*
X108585000Y-84073992D01*
X119938800Y-106969560D02*
X119923560Y-106969560D01*
X119923560Y-106969560D02*
X119562999Y-106608999D01*
X119562999Y-106608999D02*
X119562999Y-98877001D01*
X119562999Y-98877001D02*
X120650000Y-97790000D01*
D23*
X122936000Y-94996000D02*
X121180422Y-94996000D01*
X121180422Y-94996000D02*
X121029192Y-94844770D01*
X121601103Y-94044897D02*
X121468389Y-94044897D01*
X122936000Y-92710000D02*
X121601103Y-94044897D01*
X121468389Y-94044897D02*
X121044125Y-94044897D01*
X108458000Y-87249000D02*
X108458000Y-86360000D01*
X108458000Y-86360000D02*
X109982000Y-84836000D01*
X108712000Y-89281000D02*
X109093000Y-89281000D01*
X109093000Y-89281000D02*
X109982000Y-88392000D01*
X113157000Y-91567000D02*
X113157000Y-92075000D01*
X113157000Y-92075000D02*
X111506000Y-93726000D01*
X121031000Y-92793736D02*
X121031000Y-93218000D01*
X121604006Y-91628994D02*
X121604006Y-92220730D01*
X122936000Y-90297000D02*
X121604006Y-91628994D01*
X121604006Y-92220730D02*
X121031000Y-92793736D01*
D28*
G36*
X84262640Y-72744330D02*
X83935479Y-73070920D01*
X83758202Y-73497850D01*
X83757799Y-73960122D01*
X83934330Y-74387360D01*
X84260920Y-74714521D01*
X84687850Y-74891798D01*
X85150122Y-74892201D01*
X85577360Y-74715670D01*
X85904521Y-74389080D01*
X86081798Y-73962150D01*
X86082201Y-73499878D01*
X85905670Y-73072640D01*
X85579080Y-72745479D01*
X85228728Y-72600000D01*
X87151946Y-72600000D01*
X86802640Y-72744330D01*
X86475479Y-73070920D01*
X86298202Y-73497850D01*
X86297799Y-73960122D01*
X86474330Y-74387360D01*
X86800920Y-74714521D01*
X87227850Y-74891798D01*
X87690122Y-74892201D01*
X88117360Y-74715670D01*
X88235065Y-74598170D01*
X89349619Y-74598170D01*
X89434110Y-74770882D01*
X89875514Y-74908207D01*
X90335870Y-74866159D01*
X90565890Y-74770882D01*
X90650381Y-74598170D01*
X91889619Y-74598170D01*
X91974110Y-74770882D01*
X92415514Y-74908207D01*
X92875870Y-74866159D01*
X93105890Y-74770882D01*
X93190381Y-74598170D01*
X92540000Y-73947789D01*
X91889619Y-74598170D01*
X90650381Y-74598170D01*
X90000000Y-73947789D01*
X89349619Y-74598170D01*
X88235065Y-74598170D01*
X88444521Y-74389080D01*
X88621798Y-73962150D01*
X88622108Y-73605514D01*
X88821793Y-73605514D01*
X88863841Y-74065870D01*
X88959118Y-74295890D01*
X89131830Y-74380381D01*
X89782211Y-73730000D01*
X90217789Y-73730000D01*
X90868170Y-74380381D01*
X91040882Y-74295890D01*
X91178207Y-73854486D01*
X91155467Y-73605514D01*
X91361793Y-73605514D01*
X91403841Y-74065870D01*
X91499118Y-74295890D01*
X91671830Y-74380381D01*
X92322211Y-73730000D01*
X92757789Y-73730000D01*
X93408170Y-74380381D01*
X93580882Y-74295890D01*
X93718207Y-73854486D01*
X93676159Y-73394130D01*
X93580882Y-73164110D01*
X93408170Y-73079619D01*
X92757789Y-73730000D01*
X92322211Y-73730000D01*
X91671830Y-73079619D01*
X91499118Y-73164110D01*
X91361793Y-73605514D01*
X91155467Y-73605514D01*
X91136159Y-73394130D01*
X91040882Y-73164110D01*
X90868170Y-73079619D01*
X90217789Y-73730000D01*
X89782211Y-73730000D01*
X89131830Y-73079619D01*
X88959118Y-73164110D01*
X88821793Y-73605514D01*
X88622108Y-73605514D01*
X88622201Y-73499878D01*
X88445670Y-73072640D01*
X88119080Y-72745479D01*
X87768728Y-72600000D01*
X89649261Y-72600000D01*
X89434110Y-72689118D01*
X89349619Y-72861830D01*
X90000000Y-73512211D01*
X90650381Y-72861830D01*
X90565890Y-72689118D01*
X90279438Y-72600000D01*
X92189261Y-72600000D01*
X91974110Y-72689118D01*
X91889619Y-72861830D01*
X92540000Y-73512211D01*
X93190381Y-72861830D01*
X93105890Y-72689118D01*
X92819438Y-72600000D01*
X94151207Y-72600000D01*
X94033628Y-72675660D01*
X93942296Y-72809329D01*
X93910164Y-72968000D01*
X93910164Y-74492000D01*
X93938056Y-74640231D01*
X94025660Y-74776372D01*
X94159329Y-74867704D01*
X94318000Y-74899836D01*
X95842000Y-74899836D01*
X95990231Y-74871944D01*
X96126372Y-74784340D01*
X96217704Y-74650671D01*
X96221890Y-74630000D01*
X96852204Y-74630000D01*
X97144000Y-74921796D01*
X97144000Y-80771787D01*
X97143844Y-80950236D01*
X97280572Y-81281143D01*
X97533525Y-81534538D01*
X97699584Y-81603491D01*
X97699585Y-81603492D01*
X97699586Y-81603492D01*
X97864194Y-81671843D01*
X98222236Y-81672156D01*
X98553143Y-81535428D01*
X98764018Y-81324920D01*
X104980520Y-87541422D01*
X104980520Y-92500000D01*
X104988399Y-92538906D01*
X105009809Y-92570711D01*
X112509809Y-100070711D01*
X112542891Y-100092650D01*
X112580520Y-100100000D01*
X114970000Y-100100000D01*
X114970000Y-102994164D01*
X114770000Y-102994164D01*
X114621769Y-103022056D01*
X114485628Y-103109660D01*
X114394296Y-103243329D01*
X114362164Y-103402000D01*
X114362164Y-106402000D01*
X114390056Y-106550231D01*
X114477660Y-106686372D01*
X114611329Y-106777704D01*
X114770000Y-106809836D01*
X114980520Y-106809836D01*
X114980520Y-112269931D01*
X113951171Y-112269931D01*
X111894000Y-110212760D01*
X111894000Y-109982000D01*
X111806461Y-109541914D01*
X111557173Y-109168827D01*
X111184086Y-108919539D01*
X110744000Y-108832000D01*
X110303914Y-108919539D01*
X109930827Y-109168827D01*
X109681539Y-109541914D01*
X109594000Y-109982000D01*
X109594000Y-110689106D01*
X109681539Y-111129192D01*
X109930827Y-111502279D01*
X112661652Y-114233104D01*
X113034739Y-114482392D01*
X113474825Y-114569931D01*
X116934089Y-114569931D01*
X116934089Y-122231565D01*
X116765654Y-122400000D01*
X110268253Y-122400000D01*
X109957353Y-122088556D01*
X109479721Y-121890226D01*
X108962548Y-121889774D01*
X108484571Y-122087271D01*
X108171295Y-122400000D01*
X100103272Y-122400000D01*
X100180468Y-120003219D01*
X100173846Y-119964080D01*
X100152518Y-119930601D01*
X100119846Y-119908057D01*
X100080520Y-119900000D01*
X70475000Y-119900000D01*
X70475000Y-117236840D01*
X74210867Y-117236840D01*
X74651531Y-118303329D01*
X75466780Y-119120001D01*
X76532498Y-119562526D01*
X77686440Y-119563533D01*
X78752929Y-119122869D01*
X79569601Y-118307620D01*
X80012126Y-117241902D01*
X80013133Y-116087960D01*
X79572469Y-115021471D01*
X78757220Y-114204799D01*
X77691502Y-113762274D01*
X76537560Y-113761267D01*
X75471071Y-114201931D01*
X74654399Y-115017180D01*
X74211874Y-116082898D01*
X74210867Y-117236840D01*
X70475000Y-117236840D01*
X70475000Y-109695180D01*
X77356412Y-109695180D01*
X77443994Y-110135484D01*
X77693406Y-110508756D01*
X78066678Y-110758168D01*
X78506982Y-110845750D01*
X79059658Y-110845750D01*
X79499962Y-110758168D01*
X79873234Y-110508756D01*
X80122646Y-110135484D01*
X80210228Y-109695180D01*
X80122646Y-109254876D01*
X79873234Y-108881604D01*
X79499962Y-108632192D01*
X79059658Y-108544610D01*
X78506982Y-108544610D01*
X78066678Y-108632192D01*
X77693406Y-108881604D01*
X77443994Y-109254876D01*
X77356412Y-109695180D01*
X70475000Y-109695180D01*
X70475000Y-108310880D01*
X74013772Y-108310880D01*
X74101354Y-108751184D01*
X74350766Y-109124456D01*
X74724038Y-109373868D01*
X75164342Y-109461450D01*
X75717018Y-109461450D01*
X76157322Y-109373868D01*
X76530594Y-109124456D01*
X76780006Y-108751184D01*
X76867588Y-108310880D01*
X76780006Y-107870576D01*
X76530594Y-107497304D01*
X76157322Y-107247892D01*
X75717018Y-107160310D01*
X75164342Y-107160310D01*
X74724038Y-107247892D01*
X74350766Y-107497304D01*
X74101354Y-107870576D01*
X74013772Y-108310880D01*
X70475000Y-108310880D01*
X70475000Y-106924040D01*
X77356412Y-106924040D01*
X77443994Y-107364344D01*
X77693406Y-107737616D01*
X78066678Y-107987028D01*
X78506982Y-108074610D01*
X79059658Y-108074610D01*
X79499962Y-107987028D01*
X79873234Y-107737616D01*
X80122646Y-107364344D01*
X80210228Y-106924040D01*
X80122646Y-106483736D01*
X79873234Y-106110464D01*
X79499962Y-105861052D01*
X79059658Y-105773470D01*
X78506982Y-105773470D01*
X78066678Y-105861052D01*
X77693406Y-106110464D01*
X77443994Y-106483736D01*
X77356412Y-106924040D01*
X70475000Y-106924040D01*
X70475000Y-105539740D01*
X74013772Y-105539740D01*
X74101354Y-105980044D01*
X74350766Y-106353316D01*
X74724038Y-106602728D01*
X75164342Y-106690310D01*
X75717018Y-106690310D01*
X76157322Y-106602728D01*
X76530594Y-106353316D01*
X76780006Y-105980044D01*
X76867588Y-105539740D01*
X76780006Y-105099436D01*
X76530594Y-104726164D01*
X76157322Y-104476752D01*
X75717018Y-104389170D01*
X75164342Y-104389170D01*
X74724038Y-104476752D01*
X74350766Y-104726164D01*
X74101354Y-105099436D01*
X74013772Y-105539740D01*
X70475000Y-105539740D01*
X70475000Y-104155440D01*
X77356412Y-104155440D01*
X77443994Y-104595744D01*
X77693406Y-104969016D01*
X78066678Y-105218428D01*
X78506982Y-105306010D01*
X79059658Y-105306010D01*
X79499962Y-105218428D01*
X79873234Y-104969016D01*
X80122646Y-104595744D01*
X80210228Y-104155440D01*
X80122646Y-103715136D01*
X79873234Y-103341864D01*
X79499962Y-103092452D01*
X79059658Y-103004870D01*
X78506982Y-103004870D01*
X78066678Y-103092452D01*
X77693406Y-103341864D01*
X77443994Y-103715136D01*
X77356412Y-104155440D01*
X70475000Y-104155440D01*
X70475000Y-102771140D01*
X74013772Y-102771140D01*
X74101354Y-103211444D01*
X74350766Y-103584716D01*
X74724038Y-103834128D01*
X75164342Y-103921710D01*
X75717018Y-103921710D01*
X76157322Y-103834128D01*
X76530594Y-103584716D01*
X76780006Y-103211444D01*
X76867588Y-102771140D01*
X76780006Y-102330836D01*
X76530594Y-101957564D01*
X76157322Y-101708152D01*
X75717018Y-101620570D01*
X75164342Y-101620570D01*
X74724038Y-101708152D01*
X74350766Y-101957564D01*
X74101354Y-102330836D01*
X74013772Y-102771140D01*
X70475000Y-102771140D01*
X70475000Y-101384300D01*
X77356412Y-101384300D01*
X77443994Y-101824604D01*
X77693406Y-102197876D01*
X78066678Y-102447288D01*
X78506982Y-102534870D01*
X79059658Y-102534870D01*
X79499962Y-102447288D01*
X79873234Y-102197876D01*
X80122646Y-101824604D01*
X80210228Y-101384300D01*
X80122646Y-100943996D01*
X79873234Y-100570724D01*
X79499962Y-100321312D01*
X79059658Y-100233730D01*
X78506982Y-100233730D01*
X78066678Y-100321312D01*
X77693406Y-100570724D01*
X77443994Y-100943996D01*
X77356412Y-101384300D01*
X70475000Y-101384300D01*
X70475000Y-100000000D01*
X74013772Y-100000000D01*
X74101354Y-100440304D01*
X74350766Y-100813576D01*
X74724038Y-101062988D01*
X75164342Y-101150570D01*
X75717018Y-101150570D01*
X76157322Y-101062988D01*
X76530594Y-100813576D01*
X76780006Y-100440304D01*
X76867588Y-100000000D01*
X76780006Y-99559696D01*
X76530594Y-99186424D01*
X76157322Y-98937012D01*
X75717018Y-98849430D01*
X75164342Y-98849430D01*
X74724038Y-98937012D01*
X74350766Y-99186424D01*
X74101354Y-99559696D01*
X74013772Y-100000000D01*
X70475000Y-100000000D01*
X70475000Y-98615700D01*
X77356412Y-98615700D01*
X77443994Y-99056004D01*
X77693406Y-99429276D01*
X78066678Y-99678688D01*
X78506982Y-99766270D01*
X79059658Y-99766270D01*
X79499962Y-99678688D01*
X79873234Y-99429276D01*
X80122646Y-99056004D01*
X80210228Y-98615700D01*
X80122646Y-98175396D01*
X79873234Y-97802124D01*
X79499962Y-97552712D01*
X79059658Y-97465130D01*
X78506982Y-97465130D01*
X78066678Y-97552712D01*
X77693406Y-97802124D01*
X77443994Y-98175396D01*
X77356412Y-98615700D01*
X70475000Y-98615700D01*
X70475000Y-97228860D01*
X74013772Y-97228860D01*
X74101354Y-97669164D01*
X74350766Y-98042436D01*
X74724038Y-98291848D01*
X75164342Y-98379430D01*
X75717018Y-98379430D01*
X76157322Y-98291848D01*
X76530594Y-98042436D01*
X76780006Y-97669164D01*
X76867588Y-97228860D01*
X76780006Y-96788556D01*
X76530594Y-96415284D01*
X76157322Y-96165872D01*
X75717018Y-96078290D01*
X75164342Y-96078290D01*
X74724038Y-96165872D01*
X74350766Y-96415284D01*
X74101354Y-96788556D01*
X74013772Y-97228860D01*
X70475000Y-97228860D01*
X70475000Y-95844560D01*
X77356412Y-95844560D01*
X77443994Y-96284864D01*
X77693406Y-96658136D01*
X78066678Y-96907548D01*
X78506982Y-96995130D01*
X79059658Y-96995130D01*
X79499962Y-96907548D01*
X79873234Y-96658136D01*
X80122646Y-96284864D01*
X80210228Y-95844560D01*
X80122646Y-95404256D01*
X79873234Y-95030984D01*
X79499962Y-94781572D01*
X79059658Y-94693990D01*
X78506982Y-94693990D01*
X78066678Y-94781572D01*
X77693406Y-95030984D01*
X77443994Y-95404256D01*
X77356412Y-95844560D01*
X70475000Y-95844560D01*
X70475000Y-94460260D01*
X74013772Y-94460260D01*
X74101354Y-94900564D01*
X74350766Y-95273836D01*
X74724038Y-95523248D01*
X75164342Y-95610830D01*
X75717018Y-95610830D01*
X76157322Y-95523248D01*
X76530594Y-95273836D01*
X76780006Y-94900564D01*
X76867588Y-94460260D01*
X76780006Y-94019956D01*
X76530594Y-93646684D01*
X76157322Y-93397272D01*
X75717018Y-93309690D01*
X75164342Y-93309690D01*
X74724038Y-93397272D01*
X74350766Y-93646684D01*
X74101354Y-94019956D01*
X74013772Y-94460260D01*
X70475000Y-94460260D01*
X70475000Y-93075960D01*
X77356412Y-93075960D01*
X77443994Y-93516264D01*
X77693406Y-93889536D01*
X78066678Y-94138948D01*
X78506982Y-94226530D01*
X79059658Y-94226530D01*
X79499962Y-94138948D01*
X79873234Y-93889536D01*
X80122646Y-93516264D01*
X80210228Y-93075960D01*
X80122646Y-92635656D01*
X79873234Y-92262384D01*
X79499962Y-92012972D01*
X79059658Y-91925390D01*
X78506982Y-91925390D01*
X78066678Y-92012972D01*
X77693406Y-92262384D01*
X77443994Y-92635656D01*
X77356412Y-93075960D01*
X70475000Y-93075960D01*
X70475000Y-91689120D01*
X74013772Y-91689120D01*
X74101354Y-92129424D01*
X74350766Y-92502696D01*
X74724038Y-92752108D01*
X75164342Y-92839690D01*
X75717018Y-92839690D01*
X76157322Y-92752108D01*
X76530594Y-92502696D01*
X76780006Y-92129424D01*
X76867588Y-91689120D01*
X76780006Y-91248816D01*
X76530594Y-90875544D01*
X76157322Y-90626132D01*
X75717018Y-90538550D01*
X75164342Y-90538550D01*
X74724038Y-90626132D01*
X74350766Y-90875544D01*
X74101354Y-91248816D01*
X74013772Y-91689120D01*
X70475000Y-91689120D01*
X70475000Y-90304820D01*
X77356412Y-90304820D01*
X77443994Y-90745124D01*
X77693406Y-91118396D01*
X78066678Y-91367808D01*
X78506982Y-91455390D01*
X79059658Y-91455390D01*
X79499962Y-91367808D01*
X79873234Y-91118396D01*
X80122646Y-90745124D01*
X80210228Y-90304820D01*
X80160761Y-90056130D01*
X98486879Y-90056130D01*
X98593223Y-90313502D01*
X98789964Y-90510587D01*
X99047150Y-90617380D01*
X99325628Y-90617623D01*
X99567939Y-90517502D01*
X101090498Y-90517502D01*
X101233723Y-90489013D01*
X101357628Y-90489121D01*
X101615000Y-90382777D01*
X101812085Y-90186036D01*
X101918878Y-89928850D01*
X101919121Y-89650372D01*
X101812777Y-89393000D01*
X101616036Y-89195915D01*
X101358850Y-89089122D01*
X101080372Y-89088879D01*
X100823000Y-89195223D01*
X100700507Y-89317502D01*
X99567383Y-89317502D01*
X99326850Y-89217624D01*
X99048372Y-89217381D01*
X98791000Y-89323725D01*
X98593915Y-89520466D01*
X98487122Y-89777652D01*
X98486879Y-90056130D01*
X80160761Y-90056130D01*
X80122646Y-89864516D01*
X79873234Y-89491244D01*
X79499962Y-89241832D01*
X79059658Y-89154250D01*
X78506982Y-89154250D01*
X78066678Y-89241832D01*
X77693406Y-89491244D01*
X77443994Y-89864516D01*
X77356412Y-90304820D01*
X70475000Y-90304820D01*
X70475000Y-83912040D01*
X74210867Y-83912040D01*
X74651531Y-84978529D01*
X75466780Y-85795201D01*
X76532498Y-86237726D01*
X77686440Y-86238733D01*
X78752929Y-85798069D01*
X79569601Y-84982820D01*
X80012126Y-83917102D01*
X80013133Y-82763160D01*
X79572469Y-81696671D01*
X78757220Y-80879999D01*
X77691502Y-80437474D01*
X76537560Y-80436467D01*
X75471071Y-80877131D01*
X74654399Y-81692380D01*
X74211874Y-82758098D01*
X74210867Y-83912040D01*
X70475000Y-83912040D01*
X70475000Y-80100000D01*
X82500000Y-80100000D01*
X82538906Y-80092121D01*
X82571681Y-80069727D01*
X82593161Y-80036346D01*
X82600000Y-80000000D01*
X82600000Y-76500122D01*
X83757799Y-76500122D01*
X83934330Y-76927360D01*
X84260920Y-77254521D01*
X84687850Y-77431798D01*
X85150122Y-77432201D01*
X85577360Y-77255670D01*
X85904521Y-76929080D01*
X86081798Y-76502150D01*
X86081799Y-76500122D01*
X86297799Y-76500122D01*
X86474330Y-76927360D01*
X86800920Y-77254521D01*
X87227850Y-77431798D01*
X87690122Y-77432201D01*
X88117360Y-77255670D01*
X88444521Y-76929080D01*
X88621798Y-76502150D01*
X88621799Y-76500122D01*
X88837799Y-76500122D01*
X89014330Y-76927360D01*
X89340920Y-77254521D01*
X89767850Y-77431798D01*
X90230122Y-77432201D01*
X90657360Y-77255670D01*
X90984521Y-76929080D01*
X91161798Y-76502150D01*
X91161799Y-76500122D01*
X91377799Y-76500122D01*
X91554330Y-76927360D01*
X91880920Y-77254521D01*
X92307850Y-77431798D01*
X92770122Y-77432201D01*
X93197360Y-77255670D01*
X93524521Y-76929080D01*
X93701798Y-76502150D01*
X93701799Y-76500122D01*
X93917799Y-76500122D01*
X94094330Y-76927360D01*
X94420920Y-77254521D01*
X94847850Y-77431798D01*
X95310122Y-77432201D01*
X95737360Y-77255670D01*
X96064521Y-76929080D01*
X96241798Y-76502150D01*
X96242201Y-76039878D01*
X96065670Y-75612640D01*
X95739080Y-75285479D01*
X95312150Y-75108202D01*
X94849878Y-75107799D01*
X94422640Y-75284330D01*
X94095479Y-75610920D01*
X93918202Y-76037850D01*
X93917799Y-76500122D01*
X93701799Y-76500122D01*
X93702201Y-76039878D01*
X93525670Y-75612640D01*
X93199080Y-75285479D01*
X92772150Y-75108202D01*
X92309878Y-75107799D01*
X91882640Y-75284330D01*
X91555479Y-75610920D01*
X91378202Y-76037850D01*
X91377799Y-76500122D01*
X91161799Y-76500122D01*
X91162201Y-76039878D01*
X90985670Y-75612640D01*
X90659080Y-75285479D01*
X90232150Y-75108202D01*
X89769878Y-75107799D01*
X89342640Y-75284330D01*
X89015479Y-75610920D01*
X88838202Y-76037850D01*
X88837799Y-76500122D01*
X88621799Y-76500122D01*
X88622201Y-76039878D01*
X88445670Y-75612640D01*
X88119080Y-75285479D01*
X87692150Y-75108202D01*
X87229878Y-75107799D01*
X86802640Y-75284330D01*
X86475479Y-75610920D01*
X86298202Y-76037850D01*
X86297799Y-76500122D01*
X86081799Y-76500122D01*
X86082201Y-76039878D01*
X85905670Y-75612640D01*
X85579080Y-75285479D01*
X85152150Y-75108202D01*
X84689878Y-75107799D01*
X84262640Y-75284330D01*
X83935479Y-75610920D01*
X83758202Y-76037850D01*
X83757799Y-76500122D01*
X82600000Y-76500122D01*
X82600000Y-72600000D01*
X84611946Y-72600000D01*
X84262640Y-72744330D01*
X84262640Y-72744330D01*
G37*
X84262640Y-72744330D02*
X83935479Y-73070920D01*
X83758202Y-73497850D01*
X83757799Y-73960122D01*
X83934330Y-74387360D01*
X84260920Y-74714521D01*
X84687850Y-74891798D01*
X85150122Y-74892201D01*
X85577360Y-74715670D01*
X85904521Y-74389080D01*
X86081798Y-73962150D01*
X86082201Y-73499878D01*
X85905670Y-73072640D01*
X85579080Y-72745479D01*
X85228728Y-72600000D01*
X87151946Y-72600000D01*
X86802640Y-72744330D01*
X86475479Y-73070920D01*
X86298202Y-73497850D01*
X86297799Y-73960122D01*
X86474330Y-74387360D01*
X86800920Y-74714521D01*
X87227850Y-74891798D01*
X87690122Y-74892201D01*
X88117360Y-74715670D01*
X88235065Y-74598170D01*
X89349619Y-74598170D01*
X89434110Y-74770882D01*
X89875514Y-74908207D01*
X90335870Y-74866159D01*
X90565890Y-74770882D01*
X90650381Y-74598170D01*
X91889619Y-74598170D01*
X91974110Y-74770882D01*
X92415514Y-74908207D01*
X92875870Y-74866159D01*
X93105890Y-74770882D01*
X93190381Y-74598170D01*
X92540000Y-73947789D01*
X91889619Y-74598170D01*
X90650381Y-74598170D01*
X90000000Y-73947789D01*
X89349619Y-74598170D01*
X88235065Y-74598170D01*
X88444521Y-74389080D01*
X88621798Y-73962150D01*
X88622108Y-73605514D01*
X88821793Y-73605514D01*
X88863841Y-74065870D01*
X88959118Y-74295890D01*
X89131830Y-74380381D01*
X89782211Y-73730000D01*
X90217789Y-73730000D01*
X90868170Y-74380381D01*
X91040882Y-74295890D01*
X91178207Y-73854486D01*
X91155467Y-73605514D01*
X91361793Y-73605514D01*
X91403841Y-74065870D01*
X91499118Y-74295890D01*
X91671830Y-74380381D01*
X92322211Y-73730000D01*
X92757789Y-73730000D01*
X93408170Y-74380381D01*
X93580882Y-74295890D01*
X93718207Y-73854486D01*
X93676159Y-73394130D01*
X93580882Y-73164110D01*
X93408170Y-73079619D01*
X92757789Y-73730000D01*
X92322211Y-73730000D01*
X91671830Y-73079619D01*
X91499118Y-73164110D01*
X91361793Y-73605514D01*
X91155467Y-73605514D01*
X91136159Y-73394130D01*
X91040882Y-73164110D01*
X90868170Y-73079619D01*
X90217789Y-73730000D01*
X89782211Y-73730000D01*
X89131830Y-73079619D01*
X88959118Y-73164110D01*
X88821793Y-73605514D01*
X88622108Y-73605514D01*
X88622201Y-73499878D01*
X88445670Y-73072640D01*
X88119080Y-72745479D01*
X87768728Y-72600000D01*
X89649261Y-72600000D01*
X89434110Y-72689118D01*
X89349619Y-72861830D01*
X90000000Y-73512211D01*
X90650381Y-72861830D01*
X90565890Y-72689118D01*
X90279438Y-72600000D01*
X92189261Y-72600000D01*
X91974110Y-72689118D01*
X91889619Y-72861830D01*
X92540000Y-73512211D01*
X93190381Y-72861830D01*
X93105890Y-72689118D01*
X92819438Y-72600000D01*
X94151207Y-72600000D01*
X94033628Y-72675660D01*
X93942296Y-72809329D01*
X93910164Y-72968000D01*
X93910164Y-74492000D01*
X93938056Y-74640231D01*
X94025660Y-74776372D01*
X94159329Y-74867704D01*
X94318000Y-74899836D01*
X95842000Y-74899836D01*
X95990231Y-74871944D01*
X96126372Y-74784340D01*
X96217704Y-74650671D01*
X96221890Y-74630000D01*
X96852204Y-74630000D01*
X97144000Y-74921796D01*
X97144000Y-80771787D01*
X97143844Y-80950236D01*
X97280572Y-81281143D01*
X97533525Y-81534538D01*
X97699584Y-81603491D01*
X97699585Y-81603492D01*
X97699586Y-81603492D01*
X97864194Y-81671843D01*
X98222236Y-81672156D01*
X98553143Y-81535428D01*
X98764018Y-81324920D01*
X104980520Y-87541422D01*
X104980520Y-92500000D01*
X104988399Y-92538906D01*
X105009809Y-92570711D01*
X112509809Y-100070711D01*
X112542891Y-100092650D01*
X112580520Y-100100000D01*
X114970000Y-100100000D01*
X114970000Y-102994164D01*
X114770000Y-102994164D01*
X114621769Y-103022056D01*
X114485628Y-103109660D01*
X114394296Y-103243329D01*
X114362164Y-103402000D01*
X114362164Y-106402000D01*
X114390056Y-106550231D01*
X114477660Y-106686372D01*
X114611329Y-106777704D01*
X114770000Y-106809836D01*
X114980520Y-106809836D01*
X114980520Y-112269931D01*
X113951171Y-112269931D01*
X111894000Y-110212760D01*
X111894000Y-109982000D01*
X111806461Y-109541914D01*
X111557173Y-109168827D01*
X111184086Y-108919539D01*
X110744000Y-108832000D01*
X110303914Y-108919539D01*
X109930827Y-109168827D01*
X109681539Y-109541914D01*
X109594000Y-109982000D01*
X109594000Y-110689106D01*
X109681539Y-111129192D01*
X109930827Y-111502279D01*
X112661652Y-114233104D01*
X113034739Y-114482392D01*
X113474825Y-114569931D01*
X116934089Y-114569931D01*
X116934089Y-122231565D01*
X116765654Y-122400000D01*
X110268253Y-122400000D01*
X109957353Y-122088556D01*
X109479721Y-121890226D01*
X108962548Y-121889774D01*
X108484571Y-122087271D01*
X108171295Y-122400000D01*
X100103272Y-122400000D01*
X100180468Y-120003219D01*
X100173846Y-119964080D01*
X100152518Y-119930601D01*
X100119846Y-119908057D01*
X100080520Y-119900000D01*
X70475000Y-119900000D01*
X70475000Y-117236840D01*
X74210867Y-117236840D01*
X74651531Y-118303329D01*
X75466780Y-119120001D01*
X76532498Y-119562526D01*
X77686440Y-119563533D01*
X78752929Y-119122869D01*
X79569601Y-118307620D01*
X80012126Y-117241902D01*
X80013133Y-116087960D01*
X79572469Y-115021471D01*
X78757220Y-114204799D01*
X77691502Y-113762274D01*
X76537560Y-113761267D01*
X75471071Y-114201931D01*
X74654399Y-115017180D01*
X74211874Y-116082898D01*
X74210867Y-117236840D01*
X70475000Y-117236840D01*
X70475000Y-109695180D01*
X77356412Y-109695180D01*
X77443994Y-110135484D01*
X77693406Y-110508756D01*
X78066678Y-110758168D01*
X78506982Y-110845750D01*
X79059658Y-110845750D01*
X79499962Y-110758168D01*
X79873234Y-110508756D01*
X80122646Y-110135484D01*
X80210228Y-109695180D01*
X80122646Y-109254876D01*
X79873234Y-108881604D01*
X79499962Y-108632192D01*
X79059658Y-108544610D01*
X78506982Y-108544610D01*
X78066678Y-108632192D01*
X77693406Y-108881604D01*
X77443994Y-109254876D01*
X77356412Y-109695180D01*
X70475000Y-109695180D01*
X70475000Y-108310880D01*
X74013772Y-108310880D01*
X74101354Y-108751184D01*
X74350766Y-109124456D01*
X74724038Y-109373868D01*
X75164342Y-109461450D01*
X75717018Y-109461450D01*
X76157322Y-109373868D01*
X76530594Y-109124456D01*
X76780006Y-108751184D01*
X76867588Y-108310880D01*
X76780006Y-107870576D01*
X76530594Y-107497304D01*
X76157322Y-107247892D01*
X75717018Y-107160310D01*
X75164342Y-107160310D01*
X74724038Y-107247892D01*
X74350766Y-107497304D01*
X74101354Y-107870576D01*
X74013772Y-108310880D01*
X70475000Y-108310880D01*
X70475000Y-106924040D01*
X77356412Y-106924040D01*
X77443994Y-107364344D01*
X77693406Y-107737616D01*
X78066678Y-107987028D01*
X78506982Y-108074610D01*
X79059658Y-108074610D01*
X79499962Y-107987028D01*
X79873234Y-107737616D01*
X80122646Y-107364344D01*
X80210228Y-106924040D01*
X80122646Y-106483736D01*
X79873234Y-106110464D01*
X79499962Y-105861052D01*
X79059658Y-105773470D01*
X78506982Y-105773470D01*
X78066678Y-105861052D01*
X77693406Y-106110464D01*
X77443994Y-106483736D01*
X77356412Y-106924040D01*
X70475000Y-106924040D01*
X70475000Y-105539740D01*
X74013772Y-105539740D01*
X74101354Y-105980044D01*
X74350766Y-106353316D01*
X74724038Y-106602728D01*
X75164342Y-106690310D01*
X75717018Y-106690310D01*
X76157322Y-106602728D01*
X76530594Y-106353316D01*
X76780006Y-105980044D01*
X76867588Y-105539740D01*
X76780006Y-105099436D01*
X76530594Y-104726164D01*
X76157322Y-104476752D01*
X75717018Y-104389170D01*
X75164342Y-104389170D01*
X74724038Y-104476752D01*
X74350766Y-104726164D01*
X74101354Y-105099436D01*
X74013772Y-105539740D01*
X70475000Y-105539740D01*
X70475000Y-104155440D01*
X77356412Y-104155440D01*
X77443994Y-104595744D01*
X77693406Y-104969016D01*
X78066678Y-105218428D01*
X78506982Y-105306010D01*
X79059658Y-105306010D01*
X79499962Y-105218428D01*
X79873234Y-104969016D01*
X80122646Y-104595744D01*
X80210228Y-104155440D01*
X80122646Y-103715136D01*
X79873234Y-103341864D01*
X79499962Y-103092452D01*
X79059658Y-103004870D01*
X78506982Y-103004870D01*
X78066678Y-103092452D01*
X77693406Y-103341864D01*
X77443994Y-103715136D01*
X77356412Y-104155440D01*
X70475000Y-104155440D01*
X70475000Y-102771140D01*
X74013772Y-102771140D01*
X74101354Y-103211444D01*
X74350766Y-103584716D01*
X74724038Y-103834128D01*
X75164342Y-103921710D01*
X75717018Y-103921710D01*
X76157322Y-103834128D01*
X76530594Y-103584716D01*
X76780006Y-103211444D01*
X76867588Y-102771140D01*
X76780006Y-102330836D01*
X76530594Y-101957564D01*
X76157322Y-101708152D01*
X75717018Y-101620570D01*
X75164342Y-101620570D01*
X74724038Y-101708152D01*
X74350766Y-101957564D01*
X74101354Y-102330836D01*
X74013772Y-102771140D01*
X70475000Y-102771140D01*
X70475000Y-101384300D01*
X77356412Y-101384300D01*
X77443994Y-101824604D01*
X77693406Y-102197876D01*
X78066678Y-102447288D01*
X78506982Y-102534870D01*
X79059658Y-102534870D01*
X79499962Y-102447288D01*
X79873234Y-102197876D01*
X80122646Y-101824604D01*
X80210228Y-101384300D01*
X80122646Y-100943996D01*
X79873234Y-100570724D01*
X79499962Y-100321312D01*
X79059658Y-100233730D01*
X78506982Y-100233730D01*
X78066678Y-100321312D01*
X77693406Y-100570724D01*
X77443994Y-100943996D01*
X77356412Y-101384300D01*
X70475000Y-101384300D01*
X70475000Y-100000000D01*
X74013772Y-100000000D01*
X74101354Y-100440304D01*
X74350766Y-100813576D01*
X74724038Y-101062988D01*
X75164342Y-101150570D01*
X75717018Y-101150570D01*
X76157322Y-101062988D01*
X76530594Y-100813576D01*
X76780006Y-100440304D01*
X76867588Y-100000000D01*
X76780006Y-99559696D01*
X76530594Y-99186424D01*
X76157322Y-98937012D01*
X75717018Y-98849430D01*
X75164342Y-98849430D01*
X74724038Y-98937012D01*
X74350766Y-99186424D01*
X74101354Y-99559696D01*
X74013772Y-100000000D01*
X70475000Y-100000000D01*
X70475000Y-98615700D01*
X77356412Y-98615700D01*
X77443994Y-99056004D01*
X77693406Y-99429276D01*
X78066678Y-99678688D01*
X78506982Y-99766270D01*
X79059658Y-99766270D01*
X79499962Y-99678688D01*
X79873234Y-99429276D01*
X80122646Y-99056004D01*
X80210228Y-98615700D01*
X80122646Y-98175396D01*
X79873234Y-97802124D01*
X79499962Y-97552712D01*
X79059658Y-97465130D01*
X78506982Y-97465130D01*
X78066678Y-97552712D01*
X77693406Y-97802124D01*
X77443994Y-98175396D01*
X77356412Y-98615700D01*
X70475000Y-98615700D01*
X70475000Y-97228860D01*
X74013772Y-97228860D01*
X74101354Y-97669164D01*
X74350766Y-98042436D01*
X74724038Y-98291848D01*
X75164342Y-98379430D01*
X75717018Y-98379430D01*
X76157322Y-98291848D01*
X76530594Y-98042436D01*
X76780006Y-97669164D01*
X76867588Y-97228860D01*
X76780006Y-96788556D01*
X76530594Y-96415284D01*
X76157322Y-96165872D01*
X75717018Y-96078290D01*
X75164342Y-96078290D01*
X74724038Y-96165872D01*
X74350766Y-96415284D01*
X74101354Y-96788556D01*
X74013772Y-97228860D01*
X70475000Y-97228860D01*
X70475000Y-95844560D01*
X77356412Y-95844560D01*
X77443994Y-96284864D01*
X77693406Y-96658136D01*
X78066678Y-96907548D01*
X78506982Y-96995130D01*
X79059658Y-96995130D01*
X79499962Y-96907548D01*
X79873234Y-96658136D01*
X80122646Y-96284864D01*
X80210228Y-95844560D01*
X80122646Y-95404256D01*
X79873234Y-95030984D01*
X79499962Y-94781572D01*
X79059658Y-94693990D01*
X78506982Y-94693990D01*
X78066678Y-94781572D01*
X77693406Y-95030984D01*
X77443994Y-95404256D01*
X77356412Y-95844560D01*
X70475000Y-95844560D01*
X70475000Y-94460260D01*
X74013772Y-94460260D01*
X74101354Y-94900564D01*
X74350766Y-95273836D01*
X74724038Y-95523248D01*
X75164342Y-95610830D01*
X75717018Y-95610830D01*
X76157322Y-95523248D01*
X76530594Y-95273836D01*
X76780006Y-94900564D01*
X76867588Y-94460260D01*
X76780006Y-94019956D01*
X76530594Y-93646684D01*
X76157322Y-93397272D01*
X75717018Y-93309690D01*
X75164342Y-93309690D01*
X74724038Y-93397272D01*
X74350766Y-93646684D01*
X74101354Y-94019956D01*
X74013772Y-94460260D01*
X70475000Y-94460260D01*
X70475000Y-93075960D01*
X77356412Y-93075960D01*
X77443994Y-93516264D01*
X77693406Y-93889536D01*
X78066678Y-94138948D01*
X78506982Y-94226530D01*
X79059658Y-94226530D01*
X79499962Y-94138948D01*
X79873234Y-93889536D01*
X80122646Y-93516264D01*
X80210228Y-93075960D01*
X80122646Y-92635656D01*
X79873234Y-92262384D01*
X79499962Y-92012972D01*
X79059658Y-91925390D01*
X78506982Y-91925390D01*
X78066678Y-92012972D01*
X77693406Y-92262384D01*
X77443994Y-92635656D01*
X77356412Y-93075960D01*
X70475000Y-93075960D01*
X70475000Y-91689120D01*
X74013772Y-91689120D01*
X74101354Y-92129424D01*
X74350766Y-92502696D01*
X74724038Y-92752108D01*
X75164342Y-92839690D01*
X75717018Y-92839690D01*
X76157322Y-92752108D01*
X76530594Y-92502696D01*
X76780006Y-92129424D01*
X76867588Y-91689120D01*
X76780006Y-91248816D01*
X76530594Y-90875544D01*
X76157322Y-90626132D01*
X75717018Y-90538550D01*
X75164342Y-90538550D01*
X74724038Y-90626132D01*
X74350766Y-90875544D01*
X74101354Y-91248816D01*
X74013772Y-91689120D01*
X70475000Y-91689120D01*
X70475000Y-90304820D01*
X77356412Y-90304820D01*
X77443994Y-90745124D01*
X77693406Y-91118396D01*
X78066678Y-91367808D01*
X78506982Y-91455390D01*
X79059658Y-91455390D01*
X79499962Y-91367808D01*
X79873234Y-91118396D01*
X80122646Y-90745124D01*
X80210228Y-90304820D01*
X80160761Y-90056130D01*
X98486879Y-90056130D01*
X98593223Y-90313502D01*
X98789964Y-90510587D01*
X99047150Y-90617380D01*
X99325628Y-90617623D01*
X99567939Y-90517502D01*
X101090498Y-90517502D01*
X101233723Y-90489013D01*
X101357628Y-90489121D01*
X101615000Y-90382777D01*
X101812085Y-90186036D01*
X101918878Y-89928850D01*
X101919121Y-89650372D01*
X101812777Y-89393000D01*
X101616036Y-89195915D01*
X101358850Y-89089122D01*
X101080372Y-89088879D01*
X100823000Y-89195223D01*
X100700507Y-89317502D01*
X99567383Y-89317502D01*
X99326850Y-89217624D01*
X99048372Y-89217381D01*
X98791000Y-89323725D01*
X98593915Y-89520466D01*
X98487122Y-89777652D01*
X98486879Y-90056130D01*
X80160761Y-90056130D01*
X80122646Y-89864516D01*
X79873234Y-89491244D01*
X79499962Y-89241832D01*
X79059658Y-89154250D01*
X78506982Y-89154250D01*
X78066678Y-89241832D01*
X77693406Y-89491244D01*
X77443994Y-89864516D01*
X77356412Y-90304820D01*
X70475000Y-90304820D01*
X70475000Y-83912040D01*
X74210867Y-83912040D01*
X74651531Y-84978529D01*
X75466780Y-85795201D01*
X76532498Y-86237726D01*
X77686440Y-86238733D01*
X78752929Y-85798069D01*
X79569601Y-84982820D01*
X80012126Y-83917102D01*
X80013133Y-82763160D01*
X79572469Y-81696671D01*
X78757220Y-80879999D01*
X77691502Y-80437474D01*
X76537560Y-80436467D01*
X75471071Y-80877131D01*
X74654399Y-81692380D01*
X74211874Y-82758098D01*
X74210867Y-83912040D01*
X70475000Y-83912040D01*
X70475000Y-80100000D01*
X82500000Y-80100000D01*
X82538906Y-80092121D01*
X82571681Y-80069727D01*
X82593161Y-80036346D01*
X82600000Y-80000000D01*
X82600000Y-76500122D01*
X83757799Y-76500122D01*
X83934330Y-76927360D01*
X84260920Y-77254521D01*
X84687850Y-77431798D01*
X85150122Y-77432201D01*
X85577360Y-77255670D01*
X85904521Y-76929080D01*
X86081798Y-76502150D01*
X86081799Y-76500122D01*
X86297799Y-76500122D01*
X86474330Y-76927360D01*
X86800920Y-77254521D01*
X87227850Y-77431798D01*
X87690122Y-77432201D01*
X88117360Y-77255670D01*
X88444521Y-76929080D01*
X88621798Y-76502150D01*
X88621799Y-76500122D01*
X88837799Y-76500122D01*
X89014330Y-76927360D01*
X89340920Y-77254521D01*
X89767850Y-77431798D01*
X90230122Y-77432201D01*
X90657360Y-77255670D01*
X90984521Y-76929080D01*
X91161798Y-76502150D01*
X91161799Y-76500122D01*
X91377799Y-76500122D01*
X91554330Y-76927360D01*
X91880920Y-77254521D01*
X92307850Y-77431798D01*
X92770122Y-77432201D01*
X93197360Y-77255670D01*
X93524521Y-76929080D01*
X93701798Y-76502150D01*
X93701799Y-76500122D01*
X93917799Y-76500122D01*
X94094330Y-76927360D01*
X94420920Y-77254521D01*
X94847850Y-77431798D01*
X95310122Y-77432201D01*
X95737360Y-77255670D01*
X96064521Y-76929080D01*
X96241798Y-76502150D01*
X96242201Y-76039878D01*
X96065670Y-75612640D01*
X95739080Y-75285479D01*
X95312150Y-75108202D01*
X94849878Y-75107799D01*
X94422640Y-75284330D01*
X94095479Y-75610920D01*
X93918202Y-76037850D01*
X93917799Y-76500122D01*
X93701799Y-76500122D01*
X93702201Y-76039878D01*
X93525670Y-75612640D01*
X93199080Y-75285479D01*
X92772150Y-75108202D01*
X92309878Y-75107799D01*
X91882640Y-75284330D01*
X91555479Y-75610920D01*
X91378202Y-76037850D01*
X91377799Y-76500122D01*
X91161799Y-76500122D01*
X91162201Y-76039878D01*
X90985670Y-75612640D01*
X90659080Y-75285479D01*
X90232150Y-75108202D01*
X89769878Y-75107799D01*
X89342640Y-75284330D01*
X89015479Y-75610920D01*
X88838202Y-76037850D01*
X88837799Y-76500122D01*
X88621799Y-76500122D01*
X88622201Y-76039878D01*
X88445670Y-75612640D01*
X88119080Y-75285479D01*
X87692150Y-75108202D01*
X87229878Y-75107799D01*
X86802640Y-75284330D01*
X86475479Y-75610920D01*
X86298202Y-76037850D01*
X86297799Y-76500122D01*
X86081799Y-76500122D01*
X86082201Y-76039878D01*
X85905670Y-75612640D01*
X85579080Y-75285479D01*
X85152150Y-75108202D01*
X84689878Y-75107799D01*
X84262640Y-75284330D01*
X83935479Y-75610920D01*
X83758202Y-76037850D01*
X83757799Y-76500122D01*
X82600000Y-76500122D01*
X82600000Y-72600000D01*
X84611946Y-72600000D01*
X84262640Y-72744330D01*
G36*
X119145017Y-112656178D02*
X119659203Y-112869687D01*
X120215955Y-112870173D01*
X120730512Y-112657562D01*
X120788175Y-112600000D01*
X124900000Y-112600000D01*
X124900000Y-122400000D01*
X119234089Y-122400000D01*
X119234089Y-113419931D01*
X119146550Y-112979845D01*
X118897262Y-112606758D01*
X118887148Y-112600000D01*
X119088937Y-112600000D01*
X119145017Y-112656178D01*
X119145017Y-112656178D01*
G37*
X119145017Y-112656178D02*
X119659203Y-112869687D01*
X120215955Y-112870173D01*
X120730512Y-112657562D01*
X120788175Y-112600000D01*
X124900000Y-112600000D01*
X124900000Y-122400000D01*
X119234089Y-122400000D01*
X119234089Y-113419931D01*
X119146550Y-112979845D01*
X118897262Y-112606758D01*
X118887148Y-112600000D01*
X119088937Y-112600000D01*
X119145017Y-112656178D01*
G36*
X129525000Y-129525000D02*
X70475000Y-129525000D01*
X70475000Y-125481632D01*
X72567578Y-125481632D01*
X72937048Y-126375818D01*
X73620584Y-127060547D01*
X74514123Y-127431577D01*
X75481632Y-127432422D01*
X76375818Y-127062952D01*
X76939630Y-126500122D01*
X83757799Y-126500122D01*
X83934330Y-126927360D01*
X84260920Y-127254521D01*
X84687850Y-127431798D01*
X85150122Y-127432201D01*
X85577360Y-127255670D01*
X85904521Y-126929080D01*
X86081798Y-126502150D01*
X86081799Y-126500122D01*
X86297799Y-126500122D01*
X86474330Y-126927360D01*
X86800920Y-127254521D01*
X87227850Y-127431798D01*
X87690122Y-127432201D01*
X88117360Y-127255670D01*
X88444521Y-126929080D01*
X88621798Y-126502150D01*
X88621799Y-126500122D01*
X88837799Y-126500122D01*
X89014330Y-126927360D01*
X89340920Y-127254521D01*
X89767850Y-127431798D01*
X90230122Y-127432201D01*
X90657360Y-127255670D01*
X90743180Y-127170000D01*
X91796547Y-127170000D01*
X91880920Y-127254521D01*
X92307850Y-127431798D01*
X92770122Y-127432201D01*
X93197360Y-127255670D01*
X93524521Y-126929080D01*
X93701798Y-126502150D01*
X93702201Y-126039878D01*
X93525670Y-125612640D01*
X93199080Y-125285479D01*
X92772150Y-125108202D01*
X92309878Y-125107799D01*
X91882640Y-125284330D01*
X91796820Y-125370000D01*
X90743453Y-125370000D01*
X90659080Y-125285479D01*
X90232150Y-125108202D01*
X89769878Y-125107799D01*
X89342640Y-125284330D01*
X89015479Y-125610920D01*
X88838202Y-126037850D01*
X88837799Y-126500122D01*
X88621799Y-126500122D01*
X88622201Y-126039878D01*
X88445670Y-125612640D01*
X88119080Y-125285479D01*
X87692150Y-125108202D01*
X87229878Y-125107799D01*
X86802640Y-125284330D01*
X86475479Y-125610920D01*
X86298202Y-126037850D01*
X86297799Y-126500122D01*
X86081799Y-126500122D01*
X86082201Y-126039878D01*
X85905670Y-125612640D01*
X85579080Y-125285479D01*
X85152150Y-125108202D01*
X84689878Y-125107799D01*
X84262640Y-125284330D01*
X83935479Y-125610920D01*
X83758202Y-126037850D01*
X83757799Y-126500122D01*
X76939630Y-126500122D01*
X77060547Y-126379416D01*
X77431577Y-125485877D01*
X77432422Y-124518368D01*
X77201760Y-123960122D01*
X83757799Y-123960122D01*
X83934330Y-124387360D01*
X84260920Y-124714521D01*
X84687850Y-124891798D01*
X85150122Y-124892201D01*
X85577360Y-124715670D01*
X85904521Y-124389080D01*
X86081798Y-123962150D01*
X86081799Y-123960122D01*
X86297799Y-123960122D01*
X86474330Y-124387360D01*
X86800920Y-124714521D01*
X87227850Y-124891798D01*
X87690122Y-124892201D01*
X88117360Y-124715670D01*
X88444521Y-124389080D01*
X88621798Y-123962150D01*
X88622201Y-123499878D01*
X88566760Y-123365702D01*
X90252712Y-121679750D01*
X94718902Y-121679750D01*
X94598958Y-121729310D01*
X94530061Y-121798087D01*
X91406913Y-121798087D01*
X91206004Y-121838050D01*
X91035682Y-121951856D01*
X90364415Y-122623123D01*
X90232150Y-122568202D01*
X89769878Y-122567799D01*
X89342640Y-122744330D01*
X89015479Y-123070920D01*
X88838202Y-123497850D01*
X88837799Y-123960122D01*
X89014330Y-124387360D01*
X89340920Y-124714521D01*
X89767850Y-124891798D01*
X90230122Y-124892201D01*
X90657360Y-124715670D01*
X90984521Y-124389080D01*
X91161798Y-123962150D01*
X91162201Y-123499878D01*
X91106760Y-123365702D01*
X91624375Y-122848087D01*
X91778702Y-122848087D01*
X91555479Y-123070920D01*
X91378202Y-123497850D01*
X91377799Y-123960122D01*
X91554330Y-124387360D01*
X91880920Y-124714521D01*
X92307850Y-124891798D01*
X92770122Y-124892201D01*
X93197360Y-124715670D01*
X93524521Y-124389080D01*
X93701798Y-123962150D01*
X93702201Y-123499878D01*
X93525670Y-123072640D01*
X93301509Y-122848087D01*
X93934447Y-122848087D01*
X93910164Y-122968000D01*
X93910164Y-124492000D01*
X93938056Y-124640231D01*
X94025660Y-124776372D01*
X94159329Y-124867704D01*
X94318000Y-124899836D01*
X95842000Y-124899836D01*
X95990231Y-124871944D01*
X96126372Y-124784340D01*
X96217704Y-124650671D01*
X96249836Y-124492000D01*
X96249836Y-122968000D01*
X96221944Y-122819769D01*
X96134340Y-122683628D01*
X96000671Y-122592296D01*
X95842000Y-122560164D01*
X95654464Y-122560164D01*
X95694836Y-122462937D01*
X95695079Y-122184459D01*
X95588735Y-121927087D01*
X95391994Y-121730002D01*
X95270974Y-121679750D01*
X96813748Y-121679750D01*
X96881714Y-121747835D01*
X97138900Y-121854628D01*
X97417378Y-121854871D01*
X97674750Y-121748527D01*
X97871835Y-121551786D01*
X97978628Y-121294600D01*
X97978871Y-121016122D01*
X97872527Y-120758750D01*
X97675786Y-120561665D01*
X97418600Y-120454872D01*
X97140122Y-120454629D01*
X96882750Y-120560973D01*
X96813853Y-120629750D01*
X90035250Y-120629750D01*
X89834341Y-120669713D01*
X89664019Y-120783519D01*
X87824415Y-122623123D01*
X87692150Y-122568202D01*
X87229878Y-122567799D01*
X86802640Y-122744330D01*
X86475479Y-123070920D01*
X86298202Y-123497850D01*
X86297799Y-123960122D01*
X86081799Y-123960122D01*
X86082201Y-123499878D01*
X85905670Y-123072640D01*
X85579080Y-122745479D01*
X85152150Y-122568202D01*
X84689878Y-122567799D01*
X84262640Y-122744330D01*
X83935479Y-123070920D01*
X83758202Y-123497850D01*
X83757799Y-123960122D01*
X77201760Y-123960122D01*
X77062952Y-123624182D01*
X76379416Y-122939453D01*
X75485877Y-122568423D01*
X74518368Y-122567578D01*
X73624182Y-122937048D01*
X72939453Y-123620584D01*
X72568423Y-124514123D01*
X72567578Y-125481632D01*
X70475000Y-125481632D01*
X70475000Y-120400000D01*
X99667429Y-120400000D01*
X99600207Y-122487123D01*
X99627356Y-122645383D01*
X99713277Y-122778908D01*
X99844378Y-122868486D01*
X100000000Y-122900000D01*
X107932799Y-122900000D01*
X107920226Y-122930279D01*
X107919774Y-123447452D01*
X108117271Y-123925429D01*
X108482647Y-124291444D01*
X108960279Y-124489774D01*
X109477452Y-124490226D01*
X109955429Y-124292729D01*
X110321444Y-123927353D01*
X110519774Y-123449721D01*
X110520226Y-122932548D01*
X110506777Y-122900000D01*
X116265654Y-122900000D01*
X114585654Y-124580000D01*
X96901000Y-124580000D01*
X96460914Y-124667539D01*
X96087827Y-124916827D01*
X96087825Y-124916830D01*
X95916655Y-125088000D01*
X95112000Y-125088000D01*
X95011755Y-125107940D01*
X94849878Y-125107799D01*
X94698950Y-125170161D01*
X94671914Y-125175539D01*
X94649194Y-125190720D01*
X94422640Y-125284330D01*
X94095479Y-125610920D01*
X93918202Y-126037850D01*
X93917799Y-126500122D01*
X94094330Y-126927360D01*
X94420920Y-127254521D01*
X94847850Y-127431798D01*
X95310122Y-127432201D01*
X95417097Y-127388000D01*
X96393000Y-127388000D01*
X96833086Y-127300461D01*
X97206173Y-127051173D01*
X97377346Y-126880000D01*
X108332876Y-126880000D01*
X108203283Y-127009367D01*
X108020209Y-127450258D01*
X108019793Y-127927647D01*
X108202097Y-128368857D01*
X108539367Y-128706717D01*
X108980258Y-128889791D01*
X109457647Y-128890207D01*
X109898857Y-128707903D01*
X110236717Y-128370633D01*
X110419791Y-127929742D01*
X110420207Y-127452353D01*
X110237903Y-127011143D01*
X110106989Y-126880000D01*
X115062000Y-126880000D01*
X115502086Y-126792461D01*
X115875173Y-126543173D01*
X118897262Y-123521084D01*
X119146550Y-123147997D01*
X119195880Y-122900000D01*
X123713845Y-122900000D01*
X123624182Y-122937048D01*
X122939453Y-123620584D01*
X122568423Y-124514123D01*
X122567578Y-125481632D01*
X122937048Y-126375818D01*
X123620584Y-127060547D01*
X124514123Y-127431577D01*
X125481632Y-127432422D01*
X126375818Y-127062952D01*
X127060547Y-126379416D01*
X127431577Y-125485877D01*
X127432422Y-124518368D01*
X127062952Y-123624182D01*
X126379416Y-122939453D01*
X125485877Y-122568423D01*
X125386162Y-122568336D01*
X125400000Y-122500000D01*
X125400000Y-112511259D01*
X125618169Y-112511259D01*
X125731973Y-112708609D01*
X126259786Y-112885768D01*
X126815218Y-112847456D01*
X127150427Y-112708609D01*
X127264231Y-112511259D01*
X126441200Y-111688229D01*
X125618169Y-112511259D01*
X125400000Y-112511259D01*
X125400000Y-112500000D01*
X125372644Y-112354617D01*
X125293718Y-112231963D01*
X125400381Y-112293471D01*
X126223411Y-111470440D01*
X126658989Y-111470440D01*
X127482019Y-112293471D01*
X127679369Y-112179667D01*
X127856528Y-111651854D01*
X127818216Y-111096422D01*
X127679369Y-110761213D01*
X127482019Y-110647409D01*
X126658989Y-111470440D01*
X126223411Y-111470440D01*
X125400381Y-110647409D01*
X125203031Y-110761213D01*
X125025872Y-111289026D01*
X125064184Y-111844458D01*
X125193926Y-112157686D01*
X125155622Y-112131514D01*
X125000000Y-112100000D01*
X121192729Y-112100000D01*
X121338047Y-111750037D01*
X121338533Y-111193285D01*
X121125922Y-110678728D01*
X120877250Y-110429621D01*
X125618169Y-110429621D01*
X126441200Y-111252651D01*
X127264231Y-110429621D01*
X127150427Y-110232271D01*
X126622614Y-110055112D01*
X126067182Y-110093424D01*
X125731973Y-110232271D01*
X125618169Y-110429621D01*
X120877250Y-110429621D01*
X120732583Y-110284702D01*
X120218397Y-110071193D01*
X119661645Y-110070707D01*
X119147088Y-110283318D01*
X118753062Y-110676657D01*
X118539553Y-111190843D01*
X118539067Y-111747595D01*
X118684678Y-112100000D01*
X115480520Y-112100000D01*
X115480520Y-106536889D01*
X115507836Y-106402000D01*
X115507836Y-104238628D01*
X118199879Y-104238628D01*
X118306223Y-104496000D01*
X118502964Y-104693085D01*
X118760150Y-104799878D01*
X119037999Y-104800120D01*
X119037999Y-105891337D01*
X118753062Y-106175777D01*
X118539553Y-106689963D01*
X118539067Y-107246715D01*
X118751678Y-107761272D01*
X119145017Y-108155298D01*
X119659203Y-108368807D01*
X120215955Y-108369293D01*
X120730512Y-108156682D01*
X120877070Y-108010379D01*
X125618169Y-108010379D01*
X125731973Y-108207729D01*
X126259786Y-108384888D01*
X126815218Y-108346576D01*
X127150427Y-108207729D01*
X127264231Y-108010379D01*
X126441200Y-107187349D01*
X125618169Y-108010379D01*
X120877070Y-108010379D01*
X121124538Y-107763343D01*
X121338047Y-107249157D01*
X121338449Y-106788146D01*
X125025872Y-106788146D01*
X125064184Y-107343578D01*
X125203031Y-107678787D01*
X125400381Y-107792591D01*
X126223411Y-106969560D01*
X126658989Y-106969560D01*
X127482019Y-107792591D01*
X127679369Y-107678787D01*
X127856528Y-107150974D01*
X127818216Y-106595542D01*
X127679369Y-106260333D01*
X127482019Y-106146529D01*
X126658989Y-106969560D01*
X126223411Y-106969560D01*
X125400381Y-106146529D01*
X125203031Y-106260333D01*
X125025872Y-106788146D01*
X121338449Y-106788146D01*
X121338533Y-106692405D01*
X121125922Y-106177848D01*
X120877250Y-105928741D01*
X125618169Y-105928741D01*
X126441200Y-106751771D01*
X127264231Y-105928741D01*
X127150427Y-105731391D01*
X126622614Y-105554232D01*
X126067182Y-105592544D01*
X125731973Y-105731391D01*
X125618169Y-105928741D01*
X120877250Y-105928741D01*
X120732583Y-105783822D01*
X120218397Y-105570313D01*
X120087999Y-105570199D01*
X120087999Y-101372092D01*
X120525514Y-101508207D01*
X120985870Y-101466159D01*
X121215890Y-101370882D01*
X121300381Y-101198170D01*
X120650000Y-100547789D01*
X120635858Y-100561931D01*
X120418069Y-100344142D01*
X120432211Y-100330000D01*
X120867789Y-100330000D01*
X121518170Y-100980381D01*
X121690882Y-100895890D01*
X121795342Y-100560122D01*
X122027799Y-100560122D01*
X122204330Y-100987360D01*
X122530920Y-101314521D01*
X122957850Y-101491798D01*
X123420122Y-101492201D01*
X123847360Y-101315670D01*
X124174521Y-100989080D01*
X124351798Y-100562150D01*
X124351799Y-100560122D01*
X124567799Y-100560122D01*
X124744330Y-100987360D01*
X125070920Y-101314521D01*
X125497850Y-101491798D01*
X125960122Y-101492201D01*
X126387360Y-101315670D01*
X126714521Y-100989080D01*
X126891798Y-100562150D01*
X126892201Y-100099878D01*
X126715670Y-99672640D01*
X126389080Y-99345479D01*
X125962150Y-99168202D01*
X125499878Y-99167799D01*
X125072640Y-99344330D01*
X124745479Y-99670920D01*
X124568202Y-100097850D01*
X124567799Y-100560122D01*
X124351799Y-100560122D01*
X124352201Y-100099878D01*
X124175670Y-99672640D01*
X123849080Y-99345479D01*
X123422150Y-99168202D01*
X122959878Y-99167799D01*
X122532640Y-99344330D01*
X122205479Y-99670920D01*
X122028202Y-100097850D01*
X122027799Y-100560122D01*
X121795342Y-100560122D01*
X121828207Y-100454486D01*
X121786159Y-99994130D01*
X121690882Y-99764110D01*
X121518170Y-99679619D01*
X120867789Y-100330000D01*
X120432211Y-100330000D01*
X120418069Y-100315858D01*
X120635858Y-100098069D01*
X120650000Y-100112211D01*
X121300381Y-99461830D01*
X121215890Y-99289118D01*
X120774486Y-99151793D01*
X120314130Y-99193841D01*
X120087999Y-99287507D01*
X120087999Y-99094463D01*
X120285585Y-98896877D01*
X120417850Y-98951798D01*
X120880122Y-98952201D01*
X121307360Y-98775670D01*
X121634521Y-98449080D01*
X121811798Y-98022150D01*
X121811799Y-98020122D01*
X122027799Y-98020122D01*
X122204330Y-98447360D01*
X122530920Y-98774521D01*
X122957850Y-98951798D01*
X123420122Y-98952201D01*
X123847360Y-98775670D01*
X124174521Y-98449080D01*
X124351798Y-98022150D01*
X124352201Y-97559878D01*
X124175670Y-97132640D01*
X124071213Y-97028000D01*
X124560164Y-97028000D01*
X124560164Y-98552000D01*
X124588056Y-98700231D01*
X124675660Y-98836372D01*
X124809329Y-98927704D01*
X124968000Y-98959836D01*
X126492000Y-98959836D01*
X126640231Y-98931944D01*
X126776372Y-98844340D01*
X126867704Y-98710671D01*
X126899836Y-98552000D01*
X126899836Y-97028000D01*
X126871944Y-96879769D01*
X126784340Y-96743628D01*
X126650671Y-96652296D01*
X126492000Y-96620164D01*
X124968000Y-96620164D01*
X124819769Y-96648056D01*
X124683628Y-96735660D01*
X124592296Y-96869329D01*
X124560164Y-97028000D01*
X124071213Y-97028000D01*
X123849080Y-96805479D01*
X123422150Y-96628202D01*
X122959878Y-96627799D01*
X122532640Y-96804330D01*
X122205479Y-97130920D01*
X122028202Y-97557850D01*
X122027799Y-98020122D01*
X121811799Y-98020122D01*
X121812201Y-97559878D01*
X121635670Y-97132640D01*
X121309080Y-96805479D01*
X120882150Y-96628202D01*
X120419878Y-96627799D01*
X119992640Y-96804330D01*
X119672637Y-97123774D01*
X119576491Y-97027460D01*
X119319305Y-96920667D01*
X119040827Y-96920424D01*
X118783455Y-97026768D01*
X118586370Y-97223509D01*
X118479577Y-97480695D01*
X118479471Y-97602549D01*
X118414963Y-97699091D01*
X118375000Y-97900000D01*
X118375000Y-103634998D01*
X118306915Y-103702964D01*
X118200122Y-103960150D01*
X118199879Y-104238628D01*
X115507836Y-104238628D01*
X115507836Y-103402000D01*
X115480520Y-103256830D01*
X115480520Y-100000000D01*
X115453164Y-99854617D01*
X115367243Y-99721092D01*
X115236142Y-99631514D01*
X115080520Y-99600000D01*
X112746206Y-99600000D01*
X105480520Y-92334314D01*
X105480520Y-87943615D01*
X107182642Y-87943615D01*
X107288986Y-88200987D01*
X107485727Y-88398072D01*
X107742913Y-88504865D01*
X108021391Y-88505108D01*
X108278763Y-88398764D01*
X108475848Y-88202023D01*
X108580868Y-87949107D01*
X108596628Y-87949121D01*
X108661055Y-87922500D01*
X108582243Y-88112301D01*
X108581834Y-88580886D01*
X108573372Y-88580879D01*
X108316000Y-88687223D01*
X108118915Y-88883964D01*
X108012122Y-89141150D01*
X108011879Y-89419628D01*
X108118223Y-89677000D01*
X108314964Y-89874085D01*
X108572150Y-89980878D01*
X108850628Y-89981121D01*
X109092939Y-89881000D01*
X109093000Y-89881000D01*
X109322610Y-89835328D01*
X109508349Y-89711221D01*
X109702301Y-89791757D01*
X110147001Y-89792145D01*
X110106243Y-89890301D01*
X110105757Y-90447256D01*
X110147443Y-90548143D01*
X109704744Y-90547757D01*
X109190000Y-90760445D01*
X108795830Y-91153928D01*
X108582243Y-91668301D01*
X108581757Y-92225256D01*
X108794445Y-92740000D01*
X109187928Y-93134170D01*
X109702301Y-93347757D01*
X110147001Y-93348145D01*
X110106243Y-93446301D01*
X110105757Y-94003256D01*
X110318445Y-94518000D01*
X110711928Y-94912170D01*
X111226301Y-95125757D01*
X111522525Y-95126015D01*
X111376243Y-95478301D01*
X111375757Y-96035256D01*
X111588445Y-96550000D01*
X111981928Y-96944170D01*
X112496301Y-97157757D01*
X113053256Y-97158243D01*
X113568000Y-96945555D01*
X113962170Y-96552072D01*
X114175757Y-96037699D01*
X114176243Y-95480744D01*
X114029660Y-95125987D01*
X114323256Y-95126243D01*
X114838000Y-94913555D01*
X114953366Y-94798390D01*
X115015695Y-94798445D01*
X114845890Y-94967953D01*
X114739097Y-95225139D01*
X114738854Y-95503617D01*
X114791000Y-95629820D01*
X114791000Y-96556538D01*
X114690769Y-96656769D01*
X114671183Y-96686081D01*
X114666000Y-96688223D01*
X114468915Y-96884964D01*
X114362122Y-97142150D01*
X114361879Y-97420628D01*
X114468223Y-97678000D01*
X114664964Y-97875085D01*
X114922150Y-97981878D01*
X115200628Y-97982121D01*
X115458000Y-97875777D01*
X115461841Y-97871943D01*
X115464977Y-97875085D01*
X115722163Y-97981878D01*
X116000641Y-97982121D01*
X116258013Y-97875777D01*
X116455098Y-97679036D01*
X116561891Y-97421850D01*
X116562134Y-97143372D01*
X116455790Y-96886000D01*
X116349000Y-96779023D01*
X116349000Y-96229462D01*
X116604615Y-95973847D01*
X116718421Y-95803525D01*
X116725410Y-95768389D01*
X116826469Y-95667506D01*
X116933262Y-95410320D01*
X116933505Y-95131842D01*
X116827161Y-94874470D01*
X116630420Y-94677385D01*
X116373234Y-94570592D01*
X116094756Y-94570349D01*
X115837384Y-94676693D01*
X115769622Y-94744337D01*
X115578825Y-94665111D01*
X115319989Y-94664885D01*
X115489794Y-94495377D01*
X115596587Y-94238191D01*
X115596830Y-93959713D01*
X115490486Y-93702341D01*
X115446061Y-93657838D01*
X115446243Y-93448744D01*
X115233555Y-92934000D01*
X114840072Y-92539830D01*
X114325699Y-92326243D01*
X113768744Y-92325757D01*
X113669912Y-92366594D01*
X113711328Y-92304610D01*
X113757000Y-92075000D01*
X113757000Y-91947383D01*
X113856878Y-91706850D01*
X113857121Y-91428372D01*
X113750777Y-91171000D01*
X113554036Y-90973915D01*
X113296850Y-90867122D01*
X113018372Y-90866879D01*
X112761000Y-90973223D01*
X112563915Y-91169964D01*
X112457122Y-91427150D01*
X112456879Y-91705628D01*
X112521485Y-91861987D01*
X111977561Y-92405911D01*
X111785699Y-92326243D01*
X111340999Y-92325855D01*
X111381757Y-92227699D01*
X111382243Y-91670744D01*
X111340557Y-91569857D01*
X111783256Y-91570243D01*
X112298000Y-91357555D01*
X112692170Y-90964072D01*
X112905757Y-90449699D01*
X112906243Y-89892744D01*
X112718606Y-89438628D01*
X117099881Y-89438628D01*
X117206225Y-89696000D01*
X117275002Y-89764897D01*
X117275002Y-94431857D01*
X117314965Y-94632766D01*
X117428771Y-94803088D01*
X117692975Y-95067292D01*
X117692891Y-95163495D01*
X117799235Y-95420867D01*
X117995976Y-95617952D01*
X118253162Y-95724745D01*
X118531640Y-95724988D01*
X118789012Y-95618644D01*
X118986097Y-95421903D01*
X119092890Y-95164717D01*
X119093133Y-94886239D01*
X118986789Y-94628867D01*
X118790048Y-94431782D01*
X118532862Y-94324989D01*
X118435511Y-94324904D01*
X118325002Y-94214395D01*
X118325002Y-90613621D01*
X118552104Y-90707922D01*
X118649455Y-90708007D01*
X120229775Y-92288327D01*
X120249189Y-92335312D01*
X120445930Y-92532397D01*
X120486591Y-92549281D01*
X120476672Y-92564126D01*
X120431000Y-92793736D01*
X120431000Y-92837617D01*
X120331122Y-93078150D01*
X120330879Y-93356628D01*
X120437223Y-93614000D01*
X120461050Y-93637869D01*
X120451040Y-93647861D01*
X120344247Y-93905047D01*
X120344004Y-94183525D01*
X120448189Y-94435673D01*
X120436107Y-94447734D01*
X120329314Y-94704920D01*
X120329071Y-94983398D01*
X120435415Y-95240770D01*
X120632156Y-95437855D01*
X120889342Y-95544648D01*
X120942381Y-95544694D01*
X120950812Y-95550328D01*
X121180422Y-95596000D01*
X121669112Y-95596000D01*
X121748445Y-95788000D01*
X122141928Y-96182170D01*
X122656301Y-96395757D01*
X123213256Y-96396243D01*
X123728000Y-96183555D01*
X124122170Y-95790072D01*
X124335757Y-95275699D01*
X124336243Y-94718744D01*
X124123555Y-94204000D01*
X123772900Y-93852733D01*
X124122170Y-93504072D01*
X124335757Y-92989699D01*
X124336243Y-92432744D01*
X124123555Y-91918000D01*
X123730072Y-91523830D01*
X123681630Y-91503715D01*
X123728000Y-91484555D01*
X124122170Y-91091072D01*
X124335757Y-90576699D01*
X124336243Y-90019744D01*
X124123555Y-89505000D01*
X123730072Y-89110830D01*
X123215699Y-88897243D01*
X122658744Y-88896757D01*
X122144000Y-89109445D01*
X121749830Y-89502928D01*
X121536243Y-90017301D01*
X121535757Y-90574256D01*
X121616004Y-90768468D01*
X121179742Y-91204730D01*
X121118819Y-91295907D01*
X120982816Y-91239434D01*
X120704338Y-91239191D01*
X120676900Y-91250528D01*
X119391991Y-89965619D01*
X119392075Y-89869416D01*
X119285731Y-89612044D01*
X119088990Y-89414959D01*
X118831804Y-89308166D01*
X118553326Y-89307923D01*
X118499976Y-89329967D01*
X118500123Y-89161372D01*
X118393779Y-88904000D01*
X118197038Y-88706915D01*
X117939852Y-88600122D01*
X117661374Y-88599879D01*
X117404002Y-88706223D01*
X117206917Y-88902964D01*
X117100124Y-89160150D01*
X117099881Y-89438628D01*
X112718606Y-89438628D01*
X112693555Y-89378000D01*
X112300072Y-88983830D01*
X111785699Y-88770243D01*
X111340999Y-88769855D01*
X111381757Y-88671699D01*
X111382243Y-88114744D01*
X111340557Y-88013857D01*
X111783256Y-88014243D01*
X112298000Y-87801555D01*
X112321359Y-87778236D01*
X113537864Y-87778236D01*
X113674592Y-88109143D01*
X113927545Y-88362538D01*
X114258214Y-88499843D01*
X114616256Y-88500156D01*
X114947163Y-88363428D01*
X115200558Y-88110475D01*
X115256399Y-87975994D01*
X117945271Y-87975994D01*
X118107525Y-88138532D01*
X118438194Y-88275837D01*
X118796236Y-88276150D01*
X119127143Y-88139422D01*
X119380538Y-87886469D01*
X119517843Y-87555800D01*
X119518156Y-87197758D01*
X119381428Y-86866851D01*
X119128475Y-86613456D01*
X118797806Y-86476151D01*
X118439764Y-86475838D01*
X118108857Y-86612566D01*
X117945143Y-86775994D01*
X114800463Y-86775994D01*
X114617826Y-86700157D01*
X114259784Y-86699844D01*
X113928877Y-86836572D01*
X113675482Y-87089525D01*
X113538177Y-87420194D01*
X113537864Y-87778236D01*
X112321359Y-87778236D01*
X112692170Y-87408072D01*
X112905757Y-86893699D01*
X112906243Y-86336744D01*
X112693555Y-85822000D01*
X112300072Y-85427830D01*
X111785699Y-85214243D01*
X111340999Y-85213855D01*
X111381757Y-85115699D01*
X111382243Y-84558744D01*
X111169555Y-84044000D01*
X110776072Y-83649830D01*
X110261699Y-83436243D01*
X109704744Y-83435757D01*
X109190000Y-83648445D01*
X109031019Y-83807149D01*
X109031129Y-83681372D01*
X108924785Y-83424000D01*
X108728044Y-83226915D01*
X108470858Y-83120122D01*
X108192380Y-83119879D01*
X107935008Y-83226223D01*
X107737923Y-83422964D01*
X107631130Y-83680150D01*
X107630887Y-83958628D01*
X107737231Y-84216000D01*
X107933972Y-84413085D01*
X108060000Y-84465416D01*
X108060000Y-85253538D01*
X107451769Y-85861769D01*
X107337963Y-86032091D01*
X107298000Y-86233000D01*
X107298000Y-87399644D01*
X107289678Y-87407951D01*
X107182885Y-87665137D01*
X107182642Y-87943615D01*
X105480520Y-87943615D01*
X105480520Y-87500000D01*
X105451120Y-87349483D01*
X105363363Y-87217157D01*
X102186268Y-84040062D01*
X103028607Y-84040062D01*
X103197421Y-84448622D01*
X103509734Y-84761480D01*
X103917999Y-84931007D01*
X104360062Y-84931393D01*
X104768622Y-84762579D01*
X105081480Y-84450266D01*
X105251007Y-84042001D01*
X105251393Y-83599938D01*
X105082579Y-83191378D01*
X104770266Y-82878520D01*
X104362001Y-82708993D01*
X103919938Y-82708607D01*
X103511378Y-82877421D01*
X103198520Y-83189734D01*
X103028993Y-83597999D01*
X103028607Y-84040062D01*
X102186268Y-84040062D01*
X98943978Y-80797772D01*
X98944156Y-80593764D01*
X98944000Y-80593386D01*
X98944000Y-78960062D01*
X103028607Y-78960062D01*
X103197421Y-79368622D01*
X103509734Y-79681480D01*
X103917999Y-79851007D01*
X104360062Y-79851393D01*
X104768622Y-79682579D01*
X104798997Y-79652256D01*
X112518757Y-79652256D01*
X112731445Y-80167000D01*
X113124928Y-80561170D01*
X113639301Y-80774757D01*
X114196256Y-80775243D01*
X114711000Y-80562555D01*
X115105170Y-80169072D01*
X115318757Y-79654699D01*
X115319243Y-79097744D01*
X115106555Y-78583000D01*
X114713072Y-78188830D01*
X114198699Y-77975243D01*
X113641744Y-77974757D01*
X113127000Y-78187445D01*
X112732830Y-78580928D01*
X112519243Y-79095301D01*
X112518757Y-79652256D01*
X104798997Y-79652256D01*
X105081480Y-79370266D01*
X105251007Y-78962001D01*
X105251393Y-78519938D01*
X105085405Y-78118216D01*
X105525844Y-78118216D01*
X105662572Y-78449123D01*
X105915525Y-78702518D01*
X106246194Y-78839823D01*
X106604236Y-78840136D01*
X106935143Y-78703408D01*
X107188538Y-78450455D01*
X107325843Y-78119786D01*
X107326033Y-77902236D01*
X116447844Y-77902236D01*
X116584572Y-78233143D01*
X116748000Y-78396857D01*
X116748000Y-81534000D01*
X116793672Y-81763610D01*
X116923736Y-81958264D01*
X117972045Y-83006573D01*
X117971844Y-83236236D01*
X118108572Y-83567143D01*
X118361525Y-83820538D01*
X118692194Y-83957843D01*
X119050236Y-83958156D01*
X119381143Y-83821428D01*
X119634538Y-83568475D01*
X119771843Y-83237806D01*
X119771979Y-83081256D01*
X120519757Y-83081256D01*
X120732445Y-83596000D01*
X121125928Y-83990170D01*
X121640301Y-84203757D01*
X122197256Y-84204243D01*
X122712000Y-83991555D01*
X123106170Y-83598072D01*
X123319757Y-83083699D01*
X123320243Y-82526744D01*
X123107555Y-82012000D01*
X122714072Y-81617830D01*
X122199699Y-81404243D01*
X121642744Y-81403757D01*
X121128000Y-81616445D01*
X120733830Y-82009928D01*
X120520243Y-82524301D01*
X120519757Y-83081256D01*
X119771979Y-83081256D01*
X119772156Y-82879764D01*
X119635428Y-82548857D01*
X119382475Y-82295462D01*
X119051806Y-82158157D01*
X118820483Y-82157955D01*
X117948000Y-81285472D01*
X117948000Y-78396729D01*
X118110538Y-78234475D01*
X118247843Y-77903806D01*
X118248156Y-77545764D01*
X118111428Y-77214857D01*
X117858475Y-76961462D01*
X117527806Y-76824157D01*
X117169764Y-76823844D01*
X116838857Y-76960572D01*
X116585462Y-77213525D01*
X116448157Y-77544194D01*
X116447844Y-77902236D01*
X107326033Y-77902236D01*
X107326156Y-77761744D01*
X107189428Y-77430837D01*
X107026000Y-77267123D01*
X107026000Y-76194528D01*
X107644573Y-75575955D01*
X107874236Y-75576156D01*
X108103001Y-75481632D01*
X122567578Y-75481632D01*
X122937048Y-76375818D01*
X123620584Y-77060547D01*
X124514123Y-77431577D01*
X125481632Y-77432422D01*
X126375818Y-77062952D01*
X127060547Y-76379416D01*
X127431577Y-75485877D01*
X127432422Y-74518368D01*
X127062952Y-73624182D01*
X126379416Y-72939453D01*
X125485877Y-72568423D01*
X124518368Y-72567578D01*
X123624182Y-72937048D01*
X122939453Y-73620584D01*
X122568423Y-74514123D01*
X122567578Y-75481632D01*
X108103001Y-75481632D01*
X108205143Y-75439428D01*
X108458538Y-75186475D01*
X108595843Y-74855806D01*
X108596156Y-74497764D01*
X108459428Y-74166857D01*
X108206475Y-73913462D01*
X107875806Y-73776157D01*
X107517764Y-73775844D01*
X107186857Y-73912572D01*
X106933462Y-74165525D01*
X106796157Y-74496194D01*
X106795955Y-74727517D01*
X106001736Y-75521736D01*
X105871672Y-75716390D01*
X105826000Y-75946000D01*
X105826000Y-77267251D01*
X105663462Y-77429505D01*
X105526157Y-77760174D01*
X105525844Y-78118216D01*
X105085405Y-78118216D01*
X105082579Y-78111378D01*
X104770266Y-77798520D01*
X104362001Y-77628993D01*
X103919938Y-77628607D01*
X103511378Y-77797421D01*
X103198520Y-78109734D01*
X103028993Y-78517999D01*
X103028607Y-78960062D01*
X98944000Y-78960062D01*
X98944000Y-74921796D01*
X99822840Y-74042956D01*
X99949538Y-73916479D01*
X100018490Y-73750423D01*
X100018492Y-73750420D01*
X100018493Y-73750417D01*
X100086843Y-73585810D01*
X100087156Y-73227768D01*
X99950428Y-72896861D01*
X99697475Y-72643466D01*
X99531416Y-72574513D01*
X99531415Y-72574512D01*
X99531414Y-72574512D01*
X99366806Y-72506161D01*
X99008764Y-72505848D01*
X98677857Y-72642576D01*
X98424462Y-72895529D01*
X98424305Y-72895907D01*
X98044000Y-73276212D01*
X97906884Y-73139096D01*
X97899977Y-72495706D01*
X97872644Y-72354617D01*
X97786723Y-72221092D01*
X97655622Y-72131514D01*
X97500000Y-72100000D01*
X82500000Y-72100000D01*
X82354617Y-72127356D01*
X82221092Y-72213277D01*
X82131514Y-72344378D01*
X82100000Y-72500000D01*
X82100000Y-79600000D01*
X70475000Y-79600000D01*
X70475000Y-75481632D01*
X72567578Y-75481632D01*
X72937048Y-76375818D01*
X73620584Y-77060547D01*
X74514123Y-77431577D01*
X75481632Y-77432422D01*
X76375818Y-77062952D01*
X77060547Y-76379416D01*
X77431577Y-75485877D01*
X77432422Y-74518368D01*
X77062952Y-73624182D01*
X76379416Y-72939453D01*
X75485877Y-72568423D01*
X74518368Y-72567578D01*
X73624182Y-72937048D01*
X72939453Y-73620584D01*
X72568423Y-74514123D01*
X72567578Y-75481632D01*
X70475000Y-75481632D01*
X70475000Y-70475000D01*
X129525000Y-70475000D01*
X129525000Y-129525000D01*
X129525000Y-129525000D01*
G37*
X129525000Y-129525000D02*
X70475000Y-129525000D01*
X70475000Y-125481632D01*
X72567578Y-125481632D01*
X72937048Y-126375818D01*
X73620584Y-127060547D01*
X74514123Y-127431577D01*
X75481632Y-127432422D01*
X76375818Y-127062952D01*
X76939630Y-126500122D01*
X83757799Y-126500122D01*
X83934330Y-126927360D01*
X84260920Y-127254521D01*
X84687850Y-127431798D01*
X85150122Y-127432201D01*
X85577360Y-127255670D01*
X85904521Y-126929080D01*
X86081798Y-126502150D01*
X86081799Y-126500122D01*
X86297799Y-126500122D01*
X86474330Y-126927360D01*
X86800920Y-127254521D01*
X87227850Y-127431798D01*
X87690122Y-127432201D01*
X88117360Y-127255670D01*
X88444521Y-126929080D01*
X88621798Y-126502150D01*
X88621799Y-126500122D01*
X88837799Y-126500122D01*
X89014330Y-126927360D01*
X89340920Y-127254521D01*
X89767850Y-127431798D01*
X90230122Y-127432201D01*
X90657360Y-127255670D01*
X90743180Y-127170000D01*
X91796547Y-127170000D01*
X91880920Y-127254521D01*
X92307850Y-127431798D01*
X92770122Y-127432201D01*
X93197360Y-127255670D01*
X93524521Y-126929080D01*
X93701798Y-126502150D01*
X93702201Y-126039878D01*
X93525670Y-125612640D01*
X93199080Y-125285479D01*
X92772150Y-125108202D01*
X92309878Y-125107799D01*
X91882640Y-125284330D01*
X91796820Y-125370000D01*
X90743453Y-125370000D01*
X90659080Y-125285479D01*
X90232150Y-125108202D01*
X89769878Y-125107799D01*
X89342640Y-125284330D01*
X89015479Y-125610920D01*
X88838202Y-126037850D01*
X88837799Y-126500122D01*
X88621799Y-126500122D01*
X88622201Y-126039878D01*
X88445670Y-125612640D01*
X88119080Y-125285479D01*
X87692150Y-125108202D01*
X87229878Y-125107799D01*
X86802640Y-125284330D01*
X86475479Y-125610920D01*
X86298202Y-126037850D01*
X86297799Y-126500122D01*
X86081799Y-126500122D01*
X86082201Y-126039878D01*
X85905670Y-125612640D01*
X85579080Y-125285479D01*
X85152150Y-125108202D01*
X84689878Y-125107799D01*
X84262640Y-125284330D01*
X83935479Y-125610920D01*
X83758202Y-126037850D01*
X83757799Y-126500122D01*
X76939630Y-126500122D01*
X77060547Y-126379416D01*
X77431577Y-125485877D01*
X77432422Y-124518368D01*
X77201760Y-123960122D01*
X83757799Y-123960122D01*
X83934330Y-124387360D01*
X84260920Y-124714521D01*
X84687850Y-124891798D01*
X85150122Y-124892201D01*
X85577360Y-124715670D01*
X85904521Y-124389080D01*
X86081798Y-123962150D01*
X86081799Y-123960122D01*
X86297799Y-123960122D01*
X86474330Y-124387360D01*
X86800920Y-124714521D01*
X87227850Y-124891798D01*
X87690122Y-124892201D01*
X88117360Y-124715670D01*
X88444521Y-124389080D01*
X88621798Y-123962150D01*
X88622201Y-123499878D01*
X88566760Y-123365702D01*
X90252712Y-121679750D01*
X94718902Y-121679750D01*
X94598958Y-121729310D01*
X94530061Y-121798087D01*
X91406913Y-121798087D01*
X91206004Y-121838050D01*
X91035682Y-121951856D01*
X90364415Y-122623123D01*
X90232150Y-122568202D01*
X89769878Y-122567799D01*
X89342640Y-122744330D01*
X89015479Y-123070920D01*
X88838202Y-123497850D01*
X88837799Y-123960122D01*
X89014330Y-124387360D01*
X89340920Y-124714521D01*
X89767850Y-124891798D01*
X90230122Y-124892201D01*
X90657360Y-124715670D01*
X90984521Y-124389080D01*
X91161798Y-123962150D01*
X91162201Y-123499878D01*
X91106760Y-123365702D01*
X91624375Y-122848087D01*
X91778702Y-122848087D01*
X91555479Y-123070920D01*
X91378202Y-123497850D01*
X91377799Y-123960122D01*
X91554330Y-124387360D01*
X91880920Y-124714521D01*
X92307850Y-124891798D01*
X92770122Y-124892201D01*
X93197360Y-124715670D01*
X93524521Y-124389080D01*
X93701798Y-123962150D01*
X93702201Y-123499878D01*
X93525670Y-123072640D01*
X93301509Y-122848087D01*
X93934447Y-122848087D01*
X93910164Y-122968000D01*
X93910164Y-124492000D01*
X93938056Y-124640231D01*
X94025660Y-124776372D01*
X94159329Y-124867704D01*
X94318000Y-124899836D01*
X95842000Y-124899836D01*
X95990231Y-124871944D01*
X96126372Y-124784340D01*
X96217704Y-124650671D01*
X96249836Y-124492000D01*
X96249836Y-122968000D01*
X96221944Y-122819769D01*
X96134340Y-122683628D01*
X96000671Y-122592296D01*
X95842000Y-122560164D01*
X95654464Y-122560164D01*
X95694836Y-122462937D01*
X95695079Y-122184459D01*
X95588735Y-121927087D01*
X95391994Y-121730002D01*
X95270974Y-121679750D01*
X96813748Y-121679750D01*
X96881714Y-121747835D01*
X97138900Y-121854628D01*
X97417378Y-121854871D01*
X97674750Y-121748527D01*
X97871835Y-121551786D01*
X97978628Y-121294600D01*
X97978871Y-121016122D01*
X97872527Y-120758750D01*
X97675786Y-120561665D01*
X97418600Y-120454872D01*
X97140122Y-120454629D01*
X96882750Y-120560973D01*
X96813853Y-120629750D01*
X90035250Y-120629750D01*
X89834341Y-120669713D01*
X89664019Y-120783519D01*
X87824415Y-122623123D01*
X87692150Y-122568202D01*
X87229878Y-122567799D01*
X86802640Y-122744330D01*
X86475479Y-123070920D01*
X86298202Y-123497850D01*
X86297799Y-123960122D01*
X86081799Y-123960122D01*
X86082201Y-123499878D01*
X85905670Y-123072640D01*
X85579080Y-122745479D01*
X85152150Y-122568202D01*
X84689878Y-122567799D01*
X84262640Y-122744330D01*
X83935479Y-123070920D01*
X83758202Y-123497850D01*
X83757799Y-123960122D01*
X77201760Y-123960122D01*
X77062952Y-123624182D01*
X76379416Y-122939453D01*
X75485877Y-122568423D01*
X74518368Y-122567578D01*
X73624182Y-122937048D01*
X72939453Y-123620584D01*
X72568423Y-124514123D01*
X72567578Y-125481632D01*
X70475000Y-125481632D01*
X70475000Y-120400000D01*
X99667429Y-120400000D01*
X99600207Y-122487123D01*
X99627356Y-122645383D01*
X99713277Y-122778908D01*
X99844378Y-122868486D01*
X100000000Y-122900000D01*
X107932799Y-122900000D01*
X107920226Y-122930279D01*
X107919774Y-123447452D01*
X108117271Y-123925429D01*
X108482647Y-124291444D01*
X108960279Y-124489774D01*
X109477452Y-124490226D01*
X109955429Y-124292729D01*
X110321444Y-123927353D01*
X110519774Y-123449721D01*
X110520226Y-122932548D01*
X110506777Y-122900000D01*
X116265654Y-122900000D01*
X114585654Y-124580000D01*
X96901000Y-124580000D01*
X96460914Y-124667539D01*
X96087827Y-124916827D01*
X96087825Y-124916830D01*
X95916655Y-125088000D01*
X95112000Y-125088000D01*
X95011755Y-125107940D01*
X94849878Y-125107799D01*
X94698950Y-125170161D01*
X94671914Y-125175539D01*
X94649194Y-125190720D01*
X94422640Y-125284330D01*
X94095479Y-125610920D01*
X93918202Y-126037850D01*
X93917799Y-126500122D01*
X94094330Y-126927360D01*
X94420920Y-127254521D01*
X94847850Y-127431798D01*
X95310122Y-127432201D01*
X95417097Y-127388000D01*
X96393000Y-127388000D01*
X96833086Y-127300461D01*
X97206173Y-127051173D01*
X97377346Y-126880000D01*
X108332876Y-126880000D01*
X108203283Y-127009367D01*
X108020209Y-127450258D01*
X108019793Y-127927647D01*
X108202097Y-128368857D01*
X108539367Y-128706717D01*
X108980258Y-128889791D01*
X109457647Y-128890207D01*
X109898857Y-128707903D01*
X110236717Y-128370633D01*
X110419791Y-127929742D01*
X110420207Y-127452353D01*
X110237903Y-127011143D01*
X110106989Y-126880000D01*
X115062000Y-126880000D01*
X115502086Y-126792461D01*
X115875173Y-126543173D01*
X118897262Y-123521084D01*
X119146550Y-123147997D01*
X119195880Y-122900000D01*
X123713845Y-122900000D01*
X123624182Y-122937048D01*
X122939453Y-123620584D01*
X122568423Y-124514123D01*
X122567578Y-125481632D01*
X122937048Y-126375818D01*
X123620584Y-127060547D01*
X124514123Y-127431577D01*
X125481632Y-127432422D01*
X126375818Y-127062952D01*
X127060547Y-126379416D01*
X127431577Y-125485877D01*
X127432422Y-124518368D01*
X127062952Y-123624182D01*
X126379416Y-122939453D01*
X125485877Y-122568423D01*
X125386162Y-122568336D01*
X125400000Y-122500000D01*
X125400000Y-112511259D01*
X125618169Y-112511259D01*
X125731973Y-112708609D01*
X126259786Y-112885768D01*
X126815218Y-112847456D01*
X127150427Y-112708609D01*
X127264231Y-112511259D01*
X126441200Y-111688229D01*
X125618169Y-112511259D01*
X125400000Y-112511259D01*
X125400000Y-112500000D01*
X125372644Y-112354617D01*
X125293718Y-112231963D01*
X125400381Y-112293471D01*
X126223411Y-111470440D01*
X126658989Y-111470440D01*
X127482019Y-112293471D01*
X127679369Y-112179667D01*
X127856528Y-111651854D01*
X127818216Y-111096422D01*
X127679369Y-110761213D01*
X127482019Y-110647409D01*
X126658989Y-111470440D01*
X126223411Y-111470440D01*
X125400381Y-110647409D01*
X125203031Y-110761213D01*
X125025872Y-111289026D01*
X125064184Y-111844458D01*
X125193926Y-112157686D01*
X125155622Y-112131514D01*
X125000000Y-112100000D01*
X121192729Y-112100000D01*
X121338047Y-111750037D01*
X121338533Y-111193285D01*
X121125922Y-110678728D01*
X120877250Y-110429621D01*
X125618169Y-110429621D01*
X126441200Y-111252651D01*
X127264231Y-110429621D01*
X127150427Y-110232271D01*
X126622614Y-110055112D01*
X126067182Y-110093424D01*
X125731973Y-110232271D01*
X125618169Y-110429621D01*
X120877250Y-110429621D01*
X120732583Y-110284702D01*
X120218397Y-110071193D01*
X119661645Y-110070707D01*
X119147088Y-110283318D01*
X118753062Y-110676657D01*
X118539553Y-111190843D01*
X118539067Y-111747595D01*
X118684678Y-112100000D01*
X115480520Y-112100000D01*
X115480520Y-106536889D01*
X115507836Y-106402000D01*
X115507836Y-104238628D01*
X118199879Y-104238628D01*
X118306223Y-104496000D01*
X118502964Y-104693085D01*
X118760150Y-104799878D01*
X119037999Y-104800120D01*
X119037999Y-105891337D01*
X118753062Y-106175777D01*
X118539553Y-106689963D01*
X118539067Y-107246715D01*
X118751678Y-107761272D01*
X119145017Y-108155298D01*
X119659203Y-108368807D01*
X120215955Y-108369293D01*
X120730512Y-108156682D01*
X120877070Y-108010379D01*
X125618169Y-108010379D01*
X125731973Y-108207729D01*
X126259786Y-108384888D01*
X126815218Y-108346576D01*
X127150427Y-108207729D01*
X127264231Y-108010379D01*
X126441200Y-107187349D01*
X125618169Y-108010379D01*
X120877070Y-108010379D01*
X121124538Y-107763343D01*
X121338047Y-107249157D01*
X121338449Y-106788146D01*
X125025872Y-106788146D01*
X125064184Y-107343578D01*
X125203031Y-107678787D01*
X125400381Y-107792591D01*
X126223411Y-106969560D01*
X126658989Y-106969560D01*
X127482019Y-107792591D01*
X127679369Y-107678787D01*
X127856528Y-107150974D01*
X127818216Y-106595542D01*
X127679369Y-106260333D01*
X127482019Y-106146529D01*
X126658989Y-106969560D01*
X126223411Y-106969560D01*
X125400381Y-106146529D01*
X125203031Y-106260333D01*
X125025872Y-106788146D01*
X121338449Y-106788146D01*
X121338533Y-106692405D01*
X121125922Y-106177848D01*
X120877250Y-105928741D01*
X125618169Y-105928741D01*
X126441200Y-106751771D01*
X127264231Y-105928741D01*
X127150427Y-105731391D01*
X126622614Y-105554232D01*
X126067182Y-105592544D01*
X125731973Y-105731391D01*
X125618169Y-105928741D01*
X120877250Y-105928741D01*
X120732583Y-105783822D01*
X120218397Y-105570313D01*
X120087999Y-105570199D01*
X120087999Y-101372092D01*
X120525514Y-101508207D01*
X120985870Y-101466159D01*
X121215890Y-101370882D01*
X121300381Y-101198170D01*
X120650000Y-100547789D01*
X120635858Y-100561931D01*
X120418069Y-100344142D01*
X120432211Y-100330000D01*
X120867789Y-100330000D01*
X121518170Y-100980381D01*
X121690882Y-100895890D01*
X121795342Y-100560122D01*
X122027799Y-100560122D01*
X122204330Y-100987360D01*
X122530920Y-101314521D01*
X122957850Y-101491798D01*
X123420122Y-101492201D01*
X123847360Y-101315670D01*
X124174521Y-100989080D01*
X124351798Y-100562150D01*
X124351799Y-100560122D01*
X124567799Y-100560122D01*
X124744330Y-100987360D01*
X125070920Y-101314521D01*
X125497850Y-101491798D01*
X125960122Y-101492201D01*
X126387360Y-101315670D01*
X126714521Y-100989080D01*
X126891798Y-100562150D01*
X126892201Y-100099878D01*
X126715670Y-99672640D01*
X126389080Y-99345479D01*
X125962150Y-99168202D01*
X125499878Y-99167799D01*
X125072640Y-99344330D01*
X124745479Y-99670920D01*
X124568202Y-100097850D01*
X124567799Y-100560122D01*
X124351799Y-100560122D01*
X124352201Y-100099878D01*
X124175670Y-99672640D01*
X123849080Y-99345479D01*
X123422150Y-99168202D01*
X122959878Y-99167799D01*
X122532640Y-99344330D01*
X122205479Y-99670920D01*
X122028202Y-100097850D01*
X122027799Y-100560122D01*
X121795342Y-100560122D01*
X121828207Y-100454486D01*
X121786159Y-99994130D01*
X121690882Y-99764110D01*
X121518170Y-99679619D01*
X120867789Y-100330000D01*
X120432211Y-100330000D01*
X120418069Y-100315858D01*
X120635858Y-100098069D01*
X120650000Y-100112211D01*
X121300381Y-99461830D01*
X121215890Y-99289118D01*
X120774486Y-99151793D01*
X120314130Y-99193841D01*
X120087999Y-99287507D01*
X120087999Y-99094463D01*
X120285585Y-98896877D01*
X120417850Y-98951798D01*
X120880122Y-98952201D01*
X121307360Y-98775670D01*
X121634521Y-98449080D01*
X121811798Y-98022150D01*
X121811799Y-98020122D01*
X122027799Y-98020122D01*
X122204330Y-98447360D01*
X122530920Y-98774521D01*
X122957850Y-98951798D01*
X123420122Y-98952201D01*
X123847360Y-98775670D01*
X124174521Y-98449080D01*
X124351798Y-98022150D01*
X124352201Y-97559878D01*
X124175670Y-97132640D01*
X124071213Y-97028000D01*
X124560164Y-97028000D01*
X124560164Y-98552000D01*
X124588056Y-98700231D01*
X124675660Y-98836372D01*
X124809329Y-98927704D01*
X124968000Y-98959836D01*
X126492000Y-98959836D01*
X126640231Y-98931944D01*
X126776372Y-98844340D01*
X126867704Y-98710671D01*
X126899836Y-98552000D01*
X126899836Y-97028000D01*
X126871944Y-96879769D01*
X126784340Y-96743628D01*
X126650671Y-96652296D01*
X126492000Y-96620164D01*
X124968000Y-96620164D01*
X124819769Y-96648056D01*
X124683628Y-96735660D01*
X124592296Y-96869329D01*
X124560164Y-97028000D01*
X124071213Y-97028000D01*
X123849080Y-96805479D01*
X123422150Y-96628202D01*
X122959878Y-96627799D01*
X122532640Y-96804330D01*
X122205479Y-97130920D01*
X122028202Y-97557850D01*
X122027799Y-98020122D01*
X121811799Y-98020122D01*
X121812201Y-97559878D01*
X121635670Y-97132640D01*
X121309080Y-96805479D01*
X120882150Y-96628202D01*
X120419878Y-96627799D01*
X119992640Y-96804330D01*
X119672637Y-97123774D01*
X119576491Y-97027460D01*
X119319305Y-96920667D01*
X119040827Y-96920424D01*
X118783455Y-97026768D01*
X118586370Y-97223509D01*
X118479577Y-97480695D01*
X118479471Y-97602549D01*
X118414963Y-97699091D01*
X118375000Y-97900000D01*
X118375000Y-103634998D01*
X118306915Y-103702964D01*
X118200122Y-103960150D01*
X118199879Y-104238628D01*
X115507836Y-104238628D01*
X115507836Y-103402000D01*
X115480520Y-103256830D01*
X115480520Y-100000000D01*
X115453164Y-99854617D01*
X115367243Y-99721092D01*
X115236142Y-99631514D01*
X115080520Y-99600000D01*
X112746206Y-99600000D01*
X105480520Y-92334314D01*
X105480520Y-87943615D01*
X107182642Y-87943615D01*
X107288986Y-88200987D01*
X107485727Y-88398072D01*
X107742913Y-88504865D01*
X108021391Y-88505108D01*
X108278763Y-88398764D01*
X108475848Y-88202023D01*
X108580868Y-87949107D01*
X108596628Y-87949121D01*
X108661055Y-87922500D01*
X108582243Y-88112301D01*
X108581834Y-88580886D01*
X108573372Y-88580879D01*
X108316000Y-88687223D01*
X108118915Y-88883964D01*
X108012122Y-89141150D01*
X108011879Y-89419628D01*
X108118223Y-89677000D01*
X108314964Y-89874085D01*
X108572150Y-89980878D01*
X108850628Y-89981121D01*
X109092939Y-89881000D01*
X109093000Y-89881000D01*
X109322610Y-89835328D01*
X109508349Y-89711221D01*
X109702301Y-89791757D01*
X110147001Y-89792145D01*
X110106243Y-89890301D01*
X110105757Y-90447256D01*
X110147443Y-90548143D01*
X109704744Y-90547757D01*
X109190000Y-90760445D01*
X108795830Y-91153928D01*
X108582243Y-91668301D01*
X108581757Y-92225256D01*
X108794445Y-92740000D01*
X109187928Y-93134170D01*
X109702301Y-93347757D01*
X110147001Y-93348145D01*
X110106243Y-93446301D01*
X110105757Y-94003256D01*
X110318445Y-94518000D01*
X110711928Y-94912170D01*
X111226301Y-95125757D01*
X111522525Y-95126015D01*
X111376243Y-95478301D01*
X111375757Y-96035256D01*
X111588445Y-96550000D01*
X111981928Y-96944170D01*
X112496301Y-97157757D01*
X113053256Y-97158243D01*
X113568000Y-96945555D01*
X113962170Y-96552072D01*
X114175757Y-96037699D01*
X114176243Y-95480744D01*
X114029660Y-95125987D01*
X114323256Y-95126243D01*
X114838000Y-94913555D01*
X114953366Y-94798390D01*
X115015695Y-94798445D01*
X114845890Y-94967953D01*
X114739097Y-95225139D01*
X114738854Y-95503617D01*
X114791000Y-95629820D01*
X114791000Y-96556538D01*
X114690769Y-96656769D01*
X114671183Y-96686081D01*
X114666000Y-96688223D01*
X114468915Y-96884964D01*
X114362122Y-97142150D01*
X114361879Y-97420628D01*
X114468223Y-97678000D01*
X114664964Y-97875085D01*
X114922150Y-97981878D01*
X115200628Y-97982121D01*
X115458000Y-97875777D01*
X115461841Y-97871943D01*
X115464977Y-97875085D01*
X115722163Y-97981878D01*
X116000641Y-97982121D01*
X116258013Y-97875777D01*
X116455098Y-97679036D01*
X116561891Y-97421850D01*
X116562134Y-97143372D01*
X116455790Y-96886000D01*
X116349000Y-96779023D01*
X116349000Y-96229462D01*
X116604615Y-95973847D01*
X116718421Y-95803525D01*
X116725410Y-95768389D01*
X116826469Y-95667506D01*
X116933262Y-95410320D01*
X116933505Y-95131842D01*
X116827161Y-94874470D01*
X116630420Y-94677385D01*
X116373234Y-94570592D01*
X116094756Y-94570349D01*
X115837384Y-94676693D01*
X115769622Y-94744337D01*
X115578825Y-94665111D01*
X115319989Y-94664885D01*
X115489794Y-94495377D01*
X115596587Y-94238191D01*
X115596830Y-93959713D01*
X115490486Y-93702341D01*
X115446061Y-93657838D01*
X115446243Y-93448744D01*
X115233555Y-92934000D01*
X114840072Y-92539830D01*
X114325699Y-92326243D01*
X113768744Y-92325757D01*
X113669912Y-92366594D01*
X113711328Y-92304610D01*
X113757000Y-92075000D01*
X113757000Y-91947383D01*
X113856878Y-91706850D01*
X113857121Y-91428372D01*
X113750777Y-91171000D01*
X113554036Y-90973915D01*
X113296850Y-90867122D01*
X113018372Y-90866879D01*
X112761000Y-90973223D01*
X112563915Y-91169964D01*
X112457122Y-91427150D01*
X112456879Y-91705628D01*
X112521485Y-91861987D01*
X111977561Y-92405911D01*
X111785699Y-92326243D01*
X111340999Y-92325855D01*
X111381757Y-92227699D01*
X111382243Y-91670744D01*
X111340557Y-91569857D01*
X111783256Y-91570243D01*
X112298000Y-91357555D01*
X112692170Y-90964072D01*
X112905757Y-90449699D01*
X112906243Y-89892744D01*
X112718606Y-89438628D01*
X117099881Y-89438628D01*
X117206225Y-89696000D01*
X117275002Y-89764897D01*
X117275002Y-94431857D01*
X117314965Y-94632766D01*
X117428771Y-94803088D01*
X117692975Y-95067292D01*
X117692891Y-95163495D01*
X117799235Y-95420867D01*
X117995976Y-95617952D01*
X118253162Y-95724745D01*
X118531640Y-95724988D01*
X118789012Y-95618644D01*
X118986097Y-95421903D01*
X119092890Y-95164717D01*
X119093133Y-94886239D01*
X118986789Y-94628867D01*
X118790048Y-94431782D01*
X118532862Y-94324989D01*
X118435511Y-94324904D01*
X118325002Y-94214395D01*
X118325002Y-90613621D01*
X118552104Y-90707922D01*
X118649455Y-90708007D01*
X120229775Y-92288327D01*
X120249189Y-92335312D01*
X120445930Y-92532397D01*
X120486591Y-92549281D01*
X120476672Y-92564126D01*
X120431000Y-92793736D01*
X120431000Y-92837617D01*
X120331122Y-93078150D01*
X120330879Y-93356628D01*
X120437223Y-93614000D01*
X120461050Y-93637869D01*
X120451040Y-93647861D01*
X120344247Y-93905047D01*
X120344004Y-94183525D01*
X120448189Y-94435673D01*
X120436107Y-94447734D01*
X120329314Y-94704920D01*
X120329071Y-94983398D01*
X120435415Y-95240770D01*
X120632156Y-95437855D01*
X120889342Y-95544648D01*
X120942381Y-95544694D01*
X120950812Y-95550328D01*
X121180422Y-95596000D01*
X121669112Y-95596000D01*
X121748445Y-95788000D01*
X122141928Y-96182170D01*
X122656301Y-96395757D01*
X123213256Y-96396243D01*
X123728000Y-96183555D01*
X124122170Y-95790072D01*
X124335757Y-95275699D01*
X124336243Y-94718744D01*
X124123555Y-94204000D01*
X123772900Y-93852733D01*
X124122170Y-93504072D01*
X124335757Y-92989699D01*
X124336243Y-92432744D01*
X124123555Y-91918000D01*
X123730072Y-91523830D01*
X123681630Y-91503715D01*
X123728000Y-91484555D01*
X124122170Y-91091072D01*
X124335757Y-90576699D01*
X124336243Y-90019744D01*
X124123555Y-89505000D01*
X123730072Y-89110830D01*
X123215699Y-88897243D01*
X122658744Y-88896757D01*
X122144000Y-89109445D01*
X121749830Y-89502928D01*
X121536243Y-90017301D01*
X121535757Y-90574256D01*
X121616004Y-90768468D01*
X121179742Y-91204730D01*
X121118819Y-91295907D01*
X120982816Y-91239434D01*
X120704338Y-91239191D01*
X120676900Y-91250528D01*
X119391991Y-89965619D01*
X119392075Y-89869416D01*
X119285731Y-89612044D01*
X119088990Y-89414959D01*
X118831804Y-89308166D01*
X118553326Y-89307923D01*
X118499976Y-89329967D01*
X118500123Y-89161372D01*
X118393779Y-88904000D01*
X118197038Y-88706915D01*
X117939852Y-88600122D01*
X117661374Y-88599879D01*
X117404002Y-88706223D01*
X117206917Y-88902964D01*
X117100124Y-89160150D01*
X117099881Y-89438628D01*
X112718606Y-89438628D01*
X112693555Y-89378000D01*
X112300072Y-88983830D01*
X111785699Y-88770243D01*
X111340999Y-88769855D01*
X111381757Y-88671699D01*
X111382243Y-88114744D01*
X111340557Y-88013857D01*
X111783256Y-88014243D01*
X112298000Y-87801555D01*
X112321359Y-87778236D01*
X113537864Y-87778236D01*
X113674592Y-88109143D01*
X113927545Y-88362538D01*
X114258214Y-88499843D01*
X114616256Y-88500156D01*
X114947163Y-88363428D01*
X115200558Y-88110475D01*
X115256399Y-87975994D01*
X117945271Y-87975994D01*
X118107525Y-88138532D01*
X118438194Y-88275837D01*
X118796236Y-88276150D01*
X119127143Y-88139422D01*
X119380538Y-87886469D01*
X119517843Y-87555800D01*
X119518156Y-87197758D01*
X119381428Y-86866851D01*
X119128475Y-86613456D01*
X118797806Y-86476151D01*
X118439764Y-86475838D01*
X118108857Y-86612566D01*
X117945143Y-86775994D01*
X114800463Y-86775994D01*
X114617826Y-86700157D01*
X114259784Y-86699844D01*
X113928877Y-86836572D01*
X113675482Y-87089525D01*
X113538177Y-87420194D01*
X113537864Y-87778236D01*
X112321359Y-87778236D01*
X112692170Y-87408072D01*
X112905757Y-86893699D01*
X112906243Y-86336744D01*
X112693555Y-85822000D01*
X112300072Y-85427830D01*
X111785699Y-85214243D01*
X111340999Y-85213855D01*
X111381757Y-85115699D01*
X111382243Y-84558744D01*
X111169555Y-84044000D01*
X110776072Y-83649830D01*
X110261699Y-83436243D01*
X109704744Y-83435757D01*
X109190000Y-83648445D01*
X109031019Y-83807149D01*
X109031129Y-83681372D01*
X108924785Y-83424000D01*
X108728044Y-83226915D01*
X108470858Y-83120122D01*
X108192380Y-83119879D01*
X107935008Y-83226223D01*
X107737923Y-83422964D01*
X107631130Y-83680150D01*
X107630887Y-83958628D01*
X107737231Y-84216000D01*
X107933972Y-84413085D01*
X108060000Y-84465416D01*
X108060000Y-85253538D01*
X107451769Y-85861769D01*
X107337963Y-86032091D01*
X107298000Y-86233000D01*
X107298000Y-87399644D01*
X107289678Y-87407951D01*
X107182885Y-87665137D01*
X107182642Y-87943615D01*
X105480520Y-87943615D01*
X105480520Y-87500000D01*
X105451120Y-87349483D01*
X105363363Y-87217157D01*
X102186268Y-84040062D01*
X103028607Y-84040062D01*
X103197421Y-84448622D01*
X103509734Y-84761480D01*
X103917999Y-84931007D01*
X104360062Y-84931393D01*
X104768622Y-84762579D01*
X105081480Y-84450266D01*
X105251007Y-84042001D01*
X105251393Y-83599938D01*
X105082579Y-83191378D01*
X104770266Y-82878520D01*
X104362001Y-82708993D01*
X103919938Y-82708607D01*
X103511378Y-82877421D01*
X103198520Y-83189734D01*
X103028993Y-83597999D01*
X103028607Y-84040062D01*
X102186268Y-84040062D01*
X98943978Y-80797772D01*
X98944156Y-80593764D01*
X98944000Y-80593386D01*
X98944000Y-78960062D01*
X103028607Y-78960062D01*
X103197421Y-79368622D01*
X103509734Y-79681480D01*
X103917999Y-79851007D01*
X104360062Y-79851393D01*
X104768622Y-79682579D01*
X104798997Y-79652256D01*
X112518757Y-79652256D01*
X112731445Y-80167000D01*
X113124928Y-80561170D01*
X113639301Y-80774757D01*
X114196256Y-80775243D01*
X114711000Y-80562555D01*
X115105170Y-80169072D01*
X115318757Y-79654699D01*
X115319243Y-79097744D01*
X115106555Y-78583000D01*
X114713072Y-78188830D01*
X114198699Y-77975243D01*
X113641744Y-77974757D01*
X113127000Y-78187445D01*
X112732830Y-78580928D01*
X112519243Y-79095301D01*
X112518757Y-79652256D01*
X104798997Y-79652256D01*
X105081480Y-79370266D01*
X105251007Y-78962001D01*
X105251393Y-78519938D01*
X105085405Y-78118216D01*
X105525844Y-78118216D01*
X105662572Y-78449123D01*
X105915525Y-78702518D01*
X106246194Y-78839823D01*
X106604236Y-78840136D01*
X106935143Y-78703408D01*
X107188538Y-78450455D01*
X107325843Y-78119786D01*
X107326033Y-77902236D01*
X116447844Y-77902236D01*
X116584572Y-78233143D01*
X116748000Y-78396857D01*
X116748000Y-81534000D01*
X116793672Y-81763610D01*
X116923736Y-81958264D01*
X117972045Y-83006573D01*
X117971844Y-83236236D01*
X118108572Y-83567143D01*
X118361525Y-83820538D01*
X118692194Y-83957843D01*
X119050236Y-83958156D01*
X119381143Y-83821428D01*
X119634538Y-83568475D01*
X119771843Y-83237806D01*
X119771979Y-83081256D01*
X120519757Y-83081256D01*
X120732445Y-83596000D01*
X121125928Y-83990170D01*
X121640301Y-84203757D01*
X122197256Y-84204243D01*
X122712000Y-83991555D01*
X123106170Y-83598072D01*
X123319757Y-83083699D01*
X123320243Y-82526744D01*
X123107555Y-82012000D01*
X122714072Y-81617830D01*
X122199699Y-81404243D01*
X121642744Y-81403757D01*
X121128000Y-81616445D01*
X120733830Y-82009928D01*
X120520243Y-82524301D01*
X120519757Y-83081256D01*
X119771979Y-83081256D01*
X119772156Y-82879764D01*
X119635428Y-82548857D01*
X119382475Y-82295462D01*
X119051806Y-82158157D01*
X118820483Y-82157955D01*
X117948000Y-81285472D01*
X117948000Y-78396729D01*
X118110538Y-78234475D01*
X118247843Y-77903806D01*
X118248156Y-77545764D01*
X118111428Y-77214857D01*
X117858475Y-76961462D01*
X117527806Y-76824157D01*
X117169764Y-76823844D01*
X116838857Y-76960572D01*
X116585462Y-77213525D01*
X116448157Y-77544194D01*
X116447844Y-77902236D01*
X107326033Y-77902236D01*
X107326156Y-77761744D01*
X107189428Y-77430837D01*
X107026000Y-77267123D01*
X107026000Y-76194528D01*
X107644573Y-75575955D01*
X107874236Y-75576156D01*
X108103001Y-75481632D01*
X122567578Y-75481632D01*
X122937048Y-76375818D01*
X123620584Y-77060547D01*
X124514123Y-77431577D01*
X125481632Y-77432422D01*
X126375818Y-77062952D01*
X127060547Y-76379416D01*
X127431577Y-75485877D01*
X127432422Y-74518368D01*
X127062952Y-73624182D01*
X126379416Y-72939453D01*
X125485877Y-72568423D01*
X124518368Y-72567578D01*
X123624182Y-72937048D01*
X122939453Y-73620584D01*
X122568423Y-74514123D01*
X122567578Y-75481632D01*
X108103001Y-75481632D01*
X108205143Y-75439428D01*
X108458538Y-75186475D01*
X108595843Y-74855806D01*
X108596156Y-74497764D01*
X108459428Y-74166857D01*
X108206475Y-73913462D01*
X107875806Y-73776157D01*
X107517764Y-73775844D01*
X107186857Y-73912572D01*
X106933462Y-74165525D01*
X106796157Y-74496194D01*
X106795955Y-74727517D01*
X106001736Y-75521736D01*
X105871672Y-75716390D01*
X105826000Y-75946000D01*
X105826000Y-77267251D01*
X105663462Y-77429505D01*
X105526157Y-77760174D01*
X105525844Y-78118216D01*
X105085405Y-78118216D01*
X105082579Y-78111378D01*
X104770266Y-77798520D01*
X104362001Y-77628993D01*
X103919938Y-77628607D01*
X103511378Y-77797421D01*
X103198520Y-78109734D01*
X103028993Y-78517999D01*
X103028607Y-78960062D01*
X98944000Y-78960062D01*
X98944000Y-74921796D01*
X99822840Y-74042956D01*
X99949538Y-73916479D01*
X100018490Y-73750423D01*
X100018492Y-73750420D01*
X100018493Y-73750417D01*
X100086843Y-73585810D01*
X100087156Y-73227768D01*
X99950428Y-72896861D01*
X99697475Y-72643466D01*
X99531416Y-72574513D01*
X99531415Y-72574512D01*
X99531414Y-72574512D01*
X99366806Y-72506161D01*
X99008764Y-72505848D01*
X98677857Y-72642576D01*
X98424462Y-72895529D01*
X98424305Y-72895907D01*
X98044000Y-73276212D01*
X97906884Y-73139096D01*
X97899977Y-72495706D01*
X97872644Y-72354617D01*
X97786723Y-72221092D01*
X97655622Y-72131514D01*
X97500000Y-72100000D01*
X82500000Y-72100000D01*
X82354617Y-72127356D01*
X82221092Y-72213277D01*
X82131514Y-72344378D01*
X82100000Y-72500000D01*
X82100000Y-79600000D01*
X70475000Y-79600000D01*
X70475000Y-75481632D01*
X72567578Y-75481632D01*
X72937048Y-76375818D01*
X73620584Y-77060547D01*
X74514123Y-77431577D01*
X75481632Y-77432422D01*
X76375818Y-77062952D01*
X77060547Y-76379416D01*
X77431577Y-75485877D01*
X77432422Y-74518368D01*
X77062952Y-73624182D01*
X76379416Y-72939453D01*
X75485877Y-72568423D01*
X74518368Y-72567578D01*
X73624182Y-72937048D01*
X72939453Y-73620584D01*
X72568423Y-74514123D01*
X72567578Y-75481632D01*
X70475000Y-75481632D01*
X70475000Y-70475000D01*
X129525000Y-70475000D01*
X129525000Y-129525000D01*
M02*
