G04 #@! TF.FileFunction,Soldermask,Bot*
%FSLAX46Y46*%
G04 Gerber Fmt 4.6, Leading zero omitted, Abs format (unit mm)*
G04 Created by KiCad (PCBNEW 4.0.4-1.fc24-product) date Wed May 17 20:52:56 2017*
%MOMM*%
%LPD*%
G01*
G04 APERTURE LIST*
%ADD10C,0.100000*%
%ADD11C,0.010000*%
%ADD12C,5.401260*%
%ADD13O,2.398980X1.901140*%
%ADD14R,1.924000X1.924000*%
%ADD15C,1.924000*%
%ADD16C,1.822400*%
%ADD17C,2.398980*%
%ADD18C,2.200000*%
%ADD19C,2.400000*%
G04 APERTURE END LIST*
D10*
D11*
G36*
X90537052Y-98071478D02*
X90264961Y-97722906D01*
X89777415Y-97295250D01*
X89534839Y-97108985D01*
X89124300Y-96798028D01*
X88808408Y-96551880D01*
X88650363Y-96419871D01*
X88646000Y-96415228D01*
X88495590Y-96294605D01*
X88193881Y-96080707D01*
X88011000Y-95956720D01*
X87516311Y-95577168D01*
X86885395Y-95018526D01*
X86158104Y-94322264D01*
X85374288Y-93529851D01*
X84573798Y-92682756D01*
X83796486Y-91822449D01*
X83082203Y-90990398D01*
X82470799Y-90228072D01*
X82341574Y-90057111D01*
X81315859Y-88533989D01*
X80488060Y-86993896D01*
X79881776Y-85484558D01*
X79620219Y-84553778D01*
X79375094Y-83570932D01*
X79126645Y-82731189D01*
X78892013Y-82090058D01*
X78793877Y-81877963D01*
X78415235Y-81155124D01*
X78122961Y-80638640D01*
X77884325Y-80279003D01*
X77666594Y-80026708D01*
X77445508Y-79838531D01*
X77009934Y-79588826D01*
X76388145Y-79325337D01*
X75672409Y-79080066D01*
X74954993Y-78885015D01*
X74393778Y-78780093D01*
X74003960Y-78716863D01*
X73815483Y-78609701D01*
X73749460Y-78381153D01*
X73734947Y-78133222D01*
X73717079Y-77746094D01*
X73702314Y-77486054D01*
X73699669Y-77453335D01*
X73593111Y-77449929D01*
X73343033Y-77585804D01*
X73264889Y-77639333D01*
X72993502Y-77807590D01*
X72848886Y-77848557D01*
X72841555Y-77834001D01*
X72760899Y-77846627D01*
X72565609Y-78023511D01*
X72553836Y-78036058D01*
X72255521Y-78261607D01*
X71989392Y-78344889D01*
X71762990Y-78398245D01*
X71712666Y-78469921D01*
X71596276Y-78599678D01*
X71312157Y-78776081D01*
X70957887Y-78949540D01*
X70631047Y-79070465D01*
X70477944Y-79097411D01*
X70313725Y-79161270D01*
X70301555Y-79197796D01*
X70396748Y-79364305D01*
X70477944Y-79441767D01*
X70759519Y-79610632D01*
X71172134Y-79797794D01*
X71597225Y-79955417D01*
X71916224Y-80035666D01*
X71956351Y-80038222D01*
X72194057Y-80098572D01*
X72578212Y-80253399D01*
X72856340Y-80385177D01*
X73236331Y-80558436D01*
X73493549Y-80642213D01*
X73562063Y-80632121D01*
X73564680Y-80429347D01*
X73551428Y-80144055D01*
X73553059Y-79916008D01*
X73643414Y-79801165D01*
X73891826Y-79760766D01*
X74245557Y-79756000D01*
X74934007Y-79824611D01*
X75653549Y-80007970D01*
X76303927Y-80272366D01*
X76784883Y-80584087D01*
X76827623Y-80624231D01*
X77054672Y-80883122D01*
X77316339Y-81229140D01*
X77567651Y-81594912D01*
X77763633Y-81913063D01*
X77859310Y-82116217D01*
X77849378Y-82154889D01*
X77851518Y-82262946D01*
X77960730Y-82524836D01*
X77969823Y-82542944D01*
X78093846Y-82865894D01*
X78243200Y-83367516D01*
X78389108Y-83949494D01*
X78413814Y-84059889D01*
X78717225Y-85245123D01*
X79105501Y-86383616D01*
X79596211Y-87502776D01*
X80206921Y-88630012D01*
X80955198Y-89792735D01*
X81858610Y-91018353D01*
X82934724Y-92334275D01*
X84201107Y-93767912D01*
X85591063Y-95258251D01*
X86038063Y-95688406D01*
X86578518Y-96154459D01*
X86952666Y-96447830D01*
X87354150Y-96752285D01*
X87659566Y-96997358D01*
X87802418Y-97129595D01*
X87964024Y-97276965D01*
X88262577Y-97496548D01*
X88604871Y-97725634D01*
X88897700Y-97901513D01*
X89040322Y-97962471D01*
X89210792Y-98043605D01*
X89484405Y-98235114D01*
X89492666Y-98241555D01*
X89811184Y-98415283D01*
X90166222Y-98507631D01*
X90465588Y-98507835D01*
X90617093Y-98405128D01*
X90621555Y-98373390D01*
X90537052Y-98071478D01*
X90537052Y-98071478D01*
G37*
X90537052Y-98071478D02*
X90264961Y-97722906D01*
X89777415Y-97295250D01*
X89534839Y-97108985D01*
X89124300Y-96798028D01*
X88808408Y-96551880D01*
X88650363Y-96419871D01*
X88646000Y-96415228D01*
X88495590Y-96294605D01*
X88193881Y-96080707D01*
X88011000Y-95956720D01*
X87516311Y-95577168D01*
X86885395Y-95018526D01*
X86158104Y-94322264D01*
X85374288Y-93529851D01*
X84573798Y-92682756D01*
X83796486Y-91822449D01*
X83082203Y-90990398D01*
X82470799Y-90228072D01*
X82341574Y-90057111D01*
X81315859Y-88533989D01*
X80488060Y-86993896D01*
X79881776Y-85484558D01*
X79620219Y-84553778D01*
X79375094Y-83570932D01*
X79126645Y-82731189D01*
X78892013Y-82090058D01*
X78793877Y-81877963D01*
X78415235Y-81155124D01*
X78122961Y-80638640D01*
X77884325Y-80279003D01*
X77666594Y-80026708D01*
X77445508Y-79838531D01*
X77009934Y-79588826D01*
X76388145Y-79325337D01*
X75672409Y-79080066D01*
X74954993Y-78885015D01*
X74393778Y-78780093D01*
X74003960Y-78716863D01*
X73815483Y-78609701D01*
X73749460Y-78381153D01*
X73734947Y-78133222D01*
X73717079Y-77746094D01*
X73702314Y-77486054D01*
X73699669Y-77453335D01*
X73593111Y-77449929D01*
X73343033Y-77585804D01*
X73264889Y-77639333D01*
X72993502Y-77807590D01*
X72848886Y-77848557D01*
X72841555Y-77834001D01*
X72760899Y-77846627D01*
X72565609Y-78023511D01*
X72553836Y-78036058D01*
X72255521Y-78261607D01*
X71989392Y-78344889D01*
X71762990Y-78398245D01*
X71712666Y-78469921D01*
X71596276Y-78599678D01*
X71312157Y-78776081D01*
X70957887Y-78949540D01*
X70631047Y-79070465D01*
X70477944Y-79097411D01*
X70313725Y-79161270D01*
X70301555Y-79197796D01*
X70396748Y-79364305D01*
X70477944Y-79441767D01*
X70759519Y-79610632D01*
X71172134Y-79797794D01*
X71597225Y-79955417D01*
X71916224Y-80035666D01*
X71956351Y-80038222D01*
X72194057Y-80098572D01*
X72578212Y-80253399D01*
X72856340Y-80385177D01*
X73236331Y-80558436D01*
X73493549Y-80642213D01*
X73562063Y-80632121D01*
X73564680Y-80429347D01*
X73551428Y-80144055D01*
X73553059Y-79916008D01*
X73643414Y-79801165D01*
X73891826Y-79760766D01*
X74245557Y-79756000D01*
X74934007Y-79824611D01*
X75653549Y-80007970D01*
X76303927Y-80272366D01*
X76784883Y-80584087D01*
X76827623Y-80624231D01*
X77054672Y-80883122D01*
X77316339Y-81229140D01*
X77567651Y-81594912D01*
X77763633Y-81913063D01*
X77859310Y-82116217D01*
X77849378Y-82154889D01*
X77851518Y-82262946D01*
X77960730Y-82524836D01*
X77969823Y-82542944D01*
X78093846Y-82865894D01*
X78243200Y-83367516D01*
X78389108Y-83949494D01*
X78413814Y-84059889D01*
X78717225Y-85245123D01*
X79105501Y-86383616D01*
X79596211Y-87502776D01*
X80206921Y-88630012D01*
X80955198Y-89792735D01*
X81858610Y-91018353D01*
X82934724Y-92334275D01*
X84201107Y-93767912D01*
X85591063Y-95258251D01*
X86038063Y-95688406D01*
X86578518Y-96154459D01*
X86952666Y-96447830D01*
X87354150Y-96752285D01*
X87659566Y-96997358D01*
X87802418Y-97129595D01*
X87964024Y-97276965D01*
X88262577Y-97496548D01*
X88604871Y-97725634D01*
X88897700Y-97901513D01*
X89040322Y-97962471D01*
X89210792Y-98043605D01*
X89484405Y-98235114D01*
X89492666Y-98241555D01*
X89811184Y-98415283D01*
X90166222Y-98507631D01*
X90465588Y-98507835D01*
X90617093Y-98405128D01*
X90621555Y-98373390D01*
X90537052Y-98071478D01*
G36*
X108398716Y-104506779D02*
X108255891Y-104254224D01*
X107983907Y-104019327D01*
X107526445Y-103759052D01*
X107234549Y-103617225D01*
X106599599Y-103316986D01*
X105927413Y-102997226D01*
X105380406Y-102735281D01*
X104805176Y-102503630D01*
X104260936Y-102361072D01*
X103995295Y-102333778D01*
X103570444Y-102300964D01*
X103236988Y-102220225D01*
X103198789Y-102202484D01*
X102900303Y-102099085D01*
X102479648Y-102012818D01*
X102396677Y-102001359D01*
X101852416Y-101916305D01*
X101173268Y-101786012D01*
X100436514Y-101628071D01*
X99719435Y-101460072D01*
X99099311Y-101299607D01*
X98653426Y-101164264D01*
X98554659Y-101126850D01*
X98007855Y-100950562D01*
X97653047Y-100963898D01*
X97480084Y-101147067D01*
X97440972Y-101394201D01*
X97581450Y-101573416D01*
X97946349Y-101732377D01*
X98067132Y-101771208D01*
X98554043Y-101939355D01*
X99016215Y-102124152D01*
X99038992Y-102134281D01*
X99411532Y-102272314D01*
X99705257Y-102333595D01*
X99715612Y-102333778D01*
X99944573Y-102366395D01*
X100377279Y-102454371D01*
X100944116Y-102582892D01*
X101373362Y-102686555D01*
X102005968Y-102835333D01*
X102566327Y-102953110D01*
X102978820Y-103024722D01*
X103132696Y-103039333D01*
X103578539Y-103095464D01*
X104202725Y-103247934D01*
X104928263Y-103472864D01*
X105678161Y-103746373D01*
X106375426Y-104044579D01*
X106378965Y-104046239D01*
X107060161Y-104407731D01*
X107488993Y-104755121D01*
X107689530Y-105131167D01*
X107685842Y-105578628D01*
X107525608Y-106083158D01*
X107341918Y-106537824D01*
X107188458Y-106922427D01*
X107134212Y-107061000D01*
X106998450Y-107395774D01*
X106840334Y-107766555D01*
X106696815Y-108168253D01*
X106531344Y-108739422D01*
X106372764Y-109371921D01*
X106249919Y-109957609D01*
X106238136Y-110024333D01*
X106162886Y-110339709D01*
X106037897Y-110763590D01*
X106006287Y-110861125D01*
X105904817Y-111368961D01*
X105882886Y-112065839D01*
X105913131Y-112686866D01*
X105930431Y-113277437D01*
X105913278Y-113984597D01*
X105867521Y-114753072D01*
X105799006Y-115527591D01*
X105713581Y-116252879D01*
X105617092Y-116873664D01*
X105515388Y-117334673D01*
X105414314Y-117580632D01*
X105393388Y-117599997D01*
X105308354Y-117788270D01*
X105273743Y-118151253D01*
X105278610Y-118337401D01*
X105278381Y-118765143D01*
X105231366Y-119086404D01*
X105201725Y-119157849D01*
X105108471Y-119423830D01*
X105059123Y-119761000D01*
X105003584Y-120282896D01*
X104916441Y-120709502D01*
X104814691Y-120976178D01*
X104726228Y-121027020D01*
X104651018Y-121097533D01*
X104622336Y-121365156D01*
X104622993Y-121402269D01*
X104556050Y-121802199D01*
X104401961Y-122020088D01*
X104205991Y-122290034D01*
X104168222Y-122468348D01*
X104040256Y-122863349D01*
X103706978Y-123194767D01*
X103244315Y-123422541D01*
X102728195Y-123506607D01*
X102323152Y-123441872D01*
X102002564Y-123289076D01*
X101592961Y-123037600D01*
X101159303Y-122735406D01*
X100766551Y-122430460D01*
X100479666Y-122170725D01*
X100363608Y-122004165D01*
X100363791Y-121995174D01*
X100265640Y-121863442D01*
X100159759Y-121811743D01*
X99983316Y-121686556D01*
X99631560Y-121382908D01*
X99127368Y-120923263D01*
X98493621Y-120330083D01*
X97753194Y-119625828D01*
X96928967Y-118832962D01*
X96043818Y-117973947D01*
X95120624Y-117071244D01*
X94182265Y-116147316D01*
X93251617Y-115224625D01*
X92351560Y-114325633D01*
X91504970Y-113472802D01*
X90734727Y-112688594D01*
X90063709Y-111995472D01*
X89514793Y-111415896D01*
X89110858Y-110972331D01*
X89058445Y-110912290D01*
X88664394Y-110417249D01*
X88335818Y-109931853D01*
X88128334Y-109540626D01*
X88097234Y-109451454D01*
X88043217Y-108889522D01*
X88190669Y-108278588D01*
X88551643Y-107593223D01*
X89138194Y-106807997D01*
X89599351Y-106282778D01*
X90085698Y-105747885D01*
X90543004Y-105236053D01*
X90912388Y-104813664D01*
X91099514Y-104591555D01*
X91363807Y-104290923D01*
X91800678Y-103822877D01*
X92380647Y-103217035D01*
X93074236Y-102503016D01*
X93851963Y-101710439D01*
X94684350Y-100868923D01*
X95541918Y-100008086D01*
X96395185Y-99157548D01*
X97214674Y-98346927D01*
X97970904Y-97605842D01*
X98634396Y-96963911D01*
X99175669Y-96450754D01*
X99479898Y-96171603D01*
X100507759Y-95313826D01*
X101462812Y-94658960D01*
X102411561Y-94164475D01*
X102968778Y-93940349D01*
X103217753Y-93889529D01*
X103679928Y-93829432D01*
X104286801Y-93767951D01*
X104896880Y-93718191D01*
X105605032Y-93651867D01*
X106258688Y-93563888D01*
X106777554Y-93466595D01*
X107048824Y-93387404D01*
X107367647Y-93275804D01*
X107543110Y-93256392D01*
X107554889Y-93272068D01*
X107623967Y-93227366D01*
X107799017Y-93004221D01*
X107907667Y-92849021D01*
X108180519Y-92360056D01*
X108248864Y-92025951D01*
X108127112Y-91868633D01*
X107829672Y-91910027D01*
X107433983Y-92128280D01*
X107036407Y-92369110D01*
X106802261Y-92448223D01*
X106755721Y-92359907D01*
X106793204Y-92279611D01*
X106775200Y-92238540D01*
X106599619Y-92365317D01*
X106554587Y-92404383D01*
X106262706Y-92592304D01*
X105871371Y-92687879D01*
X105367666Y-92715414D01*
X103991762Y-92807970D01*
X102761192Y-93045326D01*
X101729956Y-93417050D01*
X101725910Y-93418981D01*
X101224549Y-93700109D01*
X100620623Y-94116467D01*
X99902976Y-94678012D01*
X99060446Y-95394701D01*
X98081876Y-96276493D01*
X96956107Y-97333343D01*
X95671980Y-98575211D01*
X94218336Y-100012052D01*
X93248283Y-100983815D01*
X91891010Y-102357602D01*
X90727630Y-103555528D01*
X89745600Y-104594175D01*
X88932378Y-105490124D01*
X88275424Y-106259958D01*
X87762195Y-106920258D01*
X87380149Y-107487607D01*
X87116744Y-107978586D01*
X86959440Y-108409778D01*
X86895694Y-108797764D01*
X86912964Y-109159126D01*
X86944135Y-109318778D01*
X87041284Y-109653061D01*
X87183911Y-109972885D01*
X87402785Y-110322168D01*
X87728671Y-110744830D01*
X88192338Y-111284792D01*
X88772900Y-111929333D01*
X89233065Y-112422295D01*
X89850437Y-113065893D01*
X90594338Y-113829569D01*
X91434093Y-114682759D01*
X92339025Y-115594902D01*
X93278459Y-116535437D01*
X94221717Y-117473802D01*
X95138123Y-118379436D01*
X95997002Y-119221778D01*
X96767677Y-119970265D01*
X97419472Y-120594337D01*
X97921710Y-121063432D01*
X98121212Y-121242666D01*
X98658336Y-121721260D01*
X99281268Y-122287494D01*
X99871941Y-122833856D01*
X99980828Y-122936000D01*
X100412468Y-123329237D01*
X100770625Y-123631494D01*
X101004964Y-123801504D01*
X101063408Y-123823545D01*
X101227675Y-123894102D01*
X101421624Y-124070489D01*
X101724351Y-124283426D01*
X101974648Y-124347111D01*
X102287830Y-124410852D01*
X102423773Y-124493551D01*
X102664338Y-124570595D01*
X103085636Y-124556215D01*
X103173198Y-124543569D01*
X103802407Y-124307526D01*
X104398026Y-123830530D01*
X104932508Y-123153786D01*
X105378305Y-122318499D01*
X105707871Y-121365874D01*
X105875111Y-120502092D01*
X105963447Y-119848639D01*
X106064508Y-119175496D01*
X106143464Y-118702666D01*
X106308062Y-117697623D01*
X106455334Y-116623618D01*
X106576488Y-115560501D01*
X106662731Y-114588125D01*
X106705272Y-113786341D01*
X106708222Y-113573256D01*
X106789781Y-112224446D01*
X107021679Y-110737153D01*
X107384747Y-109198538D01*
X107859816Y-107695766D01*
X108183730Y-106863965D01*
X108481792Y-105895372D01*
X108517794Y-105026343D01*
X108398716Y-104506779D01*
X108398716Y-104506779D01*
G37*
X108398716Y-104506779D02*
X108255891Y-104254224D01*
X107983907Y-104019327D01*
X107526445Y-103759052D01*
X107234549Y-103617225D01*
X106599599Y-103316986D01*
X105927413Y-102997226D01*
X105380406Y-102735281D01*
X104805176Y-102503630D01*
X104260936Y-102361072D01*
X103995295Y-102333778D01*
X103570444Y-102300964D01*
X103236988Y-102220225D01*
X103198789Y-102202484D01*
X102900303Y-102099085D01*
X102479648Y-102012818D01*
X102396677Y-102001359D01*
X101852416Y-101916305D01*
X101173268Y-101786012D01*
X100436514Y-101628071D01*
X99719435Y-101460072D01*
X99099311Y-101299607D01*
X98653426Y-101164264D01*
X98554659Y-101126850D01*
X98007855Y-100950562D01*
X97653047Y-100963898D01*
X97480084Y-101147067D01*
X97440972Y-101394201D01*
X97581450Y-101573416D01*
X97946349Y-101732377D01*
X98067132Y-101771208D01*
X98554043Y-101939355D01*
X99016215Y-102124152D01*
X99038992Y-102134281D01*
X99411532Y-102272314D01*
X99705257Y-102333595D01*
X99715612Y-102333778D01*
X99944573Y-102366395D01*
X100377279Y-102454371D01*
X100944116Y-102582892D01*
X101373362Y-102686555D01*
X102005968Y-102835333D01*
X102566327Y-102953110D01*
X102978820Y-103024722D01*
X103132696Y-103039333D01*
X103578539Y-103095464D01*
X104202725Y-103247934D01*
X104928263Y-103472864D01*
X105678161Y-103746373D01*
X106375426Y-104044579D01*
X106378965Y-104046239D01*
X107060161Y-104407731D01*
X107488993Y-104755121D01*
X107689530Y-105131167D01*
X107685842Y-105578628D01*
X107525608Y-106083158D01*
X107341918Y-106537824D01*
X107188458Y-106922427D01*
X107134212Y-107061000D01*
X106998450Y-107395774D01*
X106840334Y-107766555D01*
X106696815Y-108168253D01*
X106531344Y-108739422D01*
X106372764Y-109371921D01*
X106249919Y-109957609D01*
X106238136Y-110024333D01*
X106162886Y-110339709D01*
X106037897Y-110763590D01*
X106006287Y-110861125D01*
X105904817Y-111368961D01*
X105882886Y-112065839D01*
X105913131Y-112686866D01*
X105930431Y-113277437D01*
X105913278Y-113984597D01*
X105867521Y-114753072D01*
X105799006Y-115527591D01*
X105713581Y-116252879D01*
X105617092Y-116873664D01*
X105515388Y-117334673D01*
X105414314Y-117580632D01*
X105393388Y-117599997D01*
X105308354Y-117788270D01*
X105273743Y-118151253D01*
X105278610Y-118337401D01*
X105278381Y-118765143D01*
X105231366Y-119086404D01*
X105201725Y-119157849D01*
X105108471Y-119423830D01*
X105059123Y-119761000D01*
X105003584Y-120282896D01*
X104916441Y-120709502D01*
X104814691Y-120976178D01*
X104726228Y-121027020D01*
X104651018Y-121097533D01*
X104622336Y-121365156D01*
X104622993Y-121402269D01*
X104556050Y-121802199D01*
X104401961Y-122020088D01*
X104205991Y-122290034D01*
X104168222Y-122468348D01*
X104040256Y-122863349D01*
X103706978Y-123194767D01*
X103244315Y-123422541D01*
X102728195Y-123506607D01*
X102323152Y-123441872D01*
X102002564Y-123289076D01*
X101592961Y-123037600D01*
X101159303Y-122735406D01*
X100766551Y-122430460D01*
X100479666Y-122170725D01*
X100363608Y-122004165D01*
X100363791Y-121995174D01*
X100265640Y-121863442D01*
X100159759Y-121811743D01*
X99983316Y-121686556D01*
X99631560Y-121382908D01*
X99127368Y-120923263D01*
X98493621Y-120330083D01*
X97753194Y-119625828D01*
X96928967Y-118832962D01*
X96043818Y-117973947D01*
X95120624Y-117071244D01*
X94182265Y-116147316D01*
X93251617Y-115224625D01*
X92351560Y-114325633D01*
X91504970Y-113472802D01*
X90734727Y-112688594D01*
X90063709Y-111995472D01*
X89514793Y-111415896D01*
X89110858Y-110972331D01*
X89058445Y-110912290D01*
X88664394Y-110417249D01*
X88335818Y-109931853D01*
X88128334Y-109540626D01*
X88097234Y-109451454D01*
X88043217Y-108889522D01*
X88190669Y-108278588D01*
X88551643Y-107593223D01*
X89138194Y-106807997D01*
X89599351Y-106282778D01*
X90085698Y-105747885D01*
X90543004Y-105236053D01*
X90912388Y-104813664D01*
X91099514Y-104591555D01*
X91363807Y-104290923D01*
X91800678Y-103822877D01*
X92380647Y-103217035D01*
X93074236Y-102503016D01*
X93851963Y-101710439D01*
X94684350Y-100868923D01*
X95541918Y-100008086D01*
X96395185Y-99157548D01*
X97214674Y-98346927D01*
X97970904Y-97605842D01*
X98634396Y-96963911D01*
X99175669Y-96450754D01*
X99479898Y-96171603D01*
X100507759Y-95313826D01*
X101462812Y-94658960D01*
X102411561Y-94164475D01*
X102968778Y-93940349D01*
X103217753Y-93889529D01*
X103679928Y-93829432D01*
X104286801Y-93767951D01*
X104896880Y-93718191D01*
X105605032Y-93651867D01*
X106258688Y-93563888D01*
X106777554Y-93466595D01*
X107048824Y-93387404D01*
X107367647Y-93275804D01*
X107543110Y-93256392D01*
X107554889Y-93272068D01*
X107623967Y-93227366D01*
X107799017Y-93004221D01*
X107907667Y-92849021D01*
X108180519Y-92360056D01*
X108248864Y-92025951D01*
X108127112Y-91868633D01*
X107829672Y-91910027D01*
X107433983Y-92128280D01*
X107036407Y-92369110D01*
X106802261Y-92448223D01*
X106755721Y-92359907D01*
X106793204Y-92279611D01*
X106775200Y-92238540D01*
X106599619Y-92365317D01*
X106554587Y-92404383D01*
X106262706Y-92592304D01*
X105871371Y-92687879D01*
X105367666Y-92715414D01*
X103991762Y-92807970D01*
X102761192Y-93045326D01*
X101729956Y-93417050D01*
X101725910Y-93418981D01*
X101224549Y-93700109D01*
X100620623Y-94116467D01*
X99902976Y-94678012D01*
X99060446Y-95394701D01*
X98081876Y-96276493D01*
X96956107Y-97333343D01*
X95671980Y-98575211D01*
X94218336Y-100012052D01*
X93248283Y-100983815D01*
X91891010Y-102357602D01*
X90727630Y-103555528D01*
X89745600Y-104594175D01*
X88932378Y-105490124D01*
X88275424Y-106259958D01*
X87762195Y-106920258D01*
X87380149Y-107487607D01*
X87116744Y-107978586D01*
X86959440Y-108409778D01*
X86895694Y-108797764D01*
X86912964Y-109159126D01*
X86944135Y-109318778D01*
X87041284Y-109653061D01*
X87183911Y-109972885D01*
X87402785Y-110322168D01*
X87728671Y-110744830D01*
X88192338Y-111284792D01*
X88772900Y-111929333D01*
X89233065Y-112422295D01*
X89850437Y-113065893D01*
X90594338Y-113829569D01*
X91434093Y-114682759D01*
X92339025Y-115594902D01*
X93278459Y-116535437D01*
X94221717Y-117473802D01*
X95138123Y-118379436D01*
X95997002Y-119221778D01*
X96767677Y-119970265D01*
X97419472Y-120594337D01*
X97921710Y-121063432D01*
X98121212Y-121242666D01*
X98658336Y-121721260D01*
X99281268Y-122287494D01*
X99871941Y-122833856D01*
X99980828Y-122936000D01*
X100412468Y-123329237D01*
X100770625Y-123631494D01*
X101004964Y-123801504D01*
X101063408Y-123823545D01*
X101227675Y-123894102D01*
X101421624Y-124070489D01*
X101724351Y-124283426D01*
X101974648Y-124347111D01*
X102287830Y-124410852D01*
X102423773Y-124493551D01*
X102664338Y-124570595D01*
X103085636Y-124556215D01*
X103173198Y-124543569D01*
X103802407Y-124307526D01*
X104398026Y-123830530D01*
X104932508Y-123153786D01*
X105378305Y-122318499D01*
X105707871Y-121365874D01*
X105875111Y-120502092D01*
X105963447Y-119848639D01*
X106064508Y-119175496D01*
X106143464Y-118702666D01*
X106308062Y-117697623D01*
X106455334Y-116623618D01*
X106576488Y-115560501D01*
X106662731Y-114588125D01*
X106705272Y-113786341D01*
X106708222Y-113573256D01*
X106789781Y-112224446D01*
X107021679Y-110737153D01*
X107384747Y-109198538D01*
X107859816Y-107695766D01*
X108183730Y-106863965D01*
X108481792Y-105895372D01*
X108517794Y-105026343D01*
X108398716Y-104506779D01*
G36*
X102781783Y-86056158D02*
X102620468Y-86088517D01*
X102266320Y-86219511D01*
X101780768Y-86425309D01*
X101487111Y-86558434D01*
X100932669Y-86819721D01*
X100599623Y-86996304D01*
X100451654Y-87118506D01*
X100452442Y-87216651D01*
X100565667Y-87321061D01*
X100569889Y-87324211D01*
X100732880Y-87464926D01*
X100741029Y-87592176D01*
X100572036Y-87783976D01*
X100391274Y-87949052D01*
X99977922Y-88234793D01*
X99585683Y-88364102D01*
X99544607Y-88366099D01*
X99221169Y-88456651D01*
X98785706Y-88737478D01*
X98263475Y-89177487D01*
X97870273Y-89551698D01*
X97588045Y-89857152D01*
X97459645Y-90045774D01*
X97460984Y-90077768D01*
X97647951Y-90118670D01*
X97997899Y-90107373D01*
X98109342Y-90094465D01*
X98664889Y-90019951D01*
X98664889Y-90579457D01*
X98687658Y-90959723D01*
X98744217Y-91207998D01*
X98762926Y-91237000D01*
X98899070Y-91188564D01*
X99180736Y-90976252D01*
X99557939Y-90639724D01*
X99750704Y-90453207D01*
X100231706Y-89947035D01*
X100516165Y-89568423D01*
X100633432Y-89275754D01*
X100640444Y-89191787D01*
X100780687Y-88766989D01*
X101080111Y-88442244D01*
X101367484Y-88216507D01*
X101532170Y-88163574D01*
X101660673Y-88266803D01*
X101702705Y-88322457D01*
X101844976Y-88478795D01*
X101945992Y-88411724D01*
X102034503Y-88221257D01*
X102357472Y-87434913D01*
X102599177Y-86796174D01*
X102748614Y-86336921D01*
X102794780Y-86089035D01*
X102781783Y-86056158D01*
X102781783Y-86056158D01*
G37*
X102781783Y-86056158D02*
X102620468Y-86088517D01*
X102266320Y-86219511D01*
X101780768Y-86425309D01*
X101487111Y-86558434D01*
X100932669Y-86819721D01*
X100599623Y-86996304D01*
X100451654Y-87118506D01*
X100452442Y-87216651D01*
X100565667Y-87321061D01*
X100569889Y-87324211D01*
X100732880Y-87464926D01*
X100741029Y-87592176D01*
X100572036Y-87783976D01*
X100391274Y-87949052D01*
X99977922Y-88234793D01*
X99585683Y-88364102D01*
X99544607Y-88366099D01*
X99221169Y-88456651D01*
X98785706Y-88737478D01*
X98263475Y-89177487D01*
X97870273Y-89551698D01*
X97588045Y-89857152D01*
X97459645Y-90045774D01*
X97460984Y-90077768D01*
X97647951Y-90118670D01*
X97997899Y-90107373D01*
X98109342Y-90094465D01*
X98664889Y-90019951D01*
X98664889Y-90579457D01*
X98687658Y-90959723D01*
X98744217Y-91207998D01*
X98762926Y-91237000D01*
X98899070Y-91188564D01*
X99180736Y-90976252D01*
X99557939Y-90639724D01*
X99750704Y-90453207D01*
X100231706Y-89947035D01*
X100516165Y-89568423D01*
X100633432Y-89275754D01*
X100640444Y-89191787D01*
X100780687Y-88766989D01*
X101080111Y-88442244D01*
X101367484Y-88216507D01*
X101532170Y-88163574D01*
X101660673Y-88266803D01*
X101702705Y-88322457D01*
X101844976Y-88478795D01*
X101945992Y-88411724D01*
X102034503Y-88221257D01*
X102357472Y-87434913D01*
X102599177Y-86796174D01*
X102748614Y-86336921D01*
X102794780Y-86089035D01*
X102781783Y-86056158D01*
G36*
X107484333Y-93443778D02*
X107413778Y-93514333D01*
X107484333Y-93584889D01*
X107554889Y-93514333D01*
X107484333Y-93443778D01*
X107484333Y-93443778D01*
G37*
X107484333Y-93443778D02*
X107413778Y-93514333D01*
X107484333Y-93584889D01*
X107554889Y-93514333D01*
X107484333Y-93443778D01*
D12*
X77112000Y-116662400D03*
D13*
X78783320Y-104155440D03*
X78783320Y-106924040D03*
X78783320Y-109695180D03*
X78783320Y-101384300D03*
X78783320Y-98615700D03*
X75440680Y-108310880D03*
X78783320Y-90304820D03*
X78783320Y-93075960D03*
X78783320Y-95844560D03*
D12*
X77112000Y-83337600D03*
D13*
X75440680Y-105539740D03*
X75440680Y-102771140D03*
X75440680Y-100000000D03*
X75440680Y-97228860D03*
X75440680Y-94460260D03*
X75440680Y-91689120D03*
D14*
X95080000Y-123730000D03*
D15*
X95080000Y-126270000D03*
X92540000Y-123730000D03*
X92540000Y-126270000D03*
X90000000Y-123730000D03*
X90000000Y-126270000D03*
X87460000Y-123730000D03*
X87460000Y-126270000D03*
X84920000Y-123730000D03*
X84920000Y-126270000D03*
D14*
X95080000Y-73730000D03*
D15*
X95080000Y-76270000D03*
X92540000Y-73730000D03*
X92540000Y-76270000D03*
X90000000Y-73730000D03*
X90000000Y-76270000D03*
X87460000Y-73730000D03*
X87460000Y-76270000D03*
X84920000Y-73730000D03*
X84920000Y-76270000D03*
D16*
X104140000Y-83820000D03*
X104140000Y-78740000D03*
D14*
X125730000Y-97790000D03*
D15*
X125730000Y-100330000D03*
X123190000Y-97790000D03*
X123190000Y-100330000D03*
X120650000Y-97790000D03*
X120650000Y-100330000D03*
D17*
X119938800Y-111470440D03*
X126441200Y-106969560D03*
X119938800Y-106969560D03*
X126441200Y-111470440D03*
D18*
X122936000Y-94996000D03*
X122936000Y-92710000D03*
X109982000Y-84836000D03*
X111506000Y-86614000D03*
X109982000Y-88392000D03*
X111506000Y-90170000D03*
X111506000Y-93726000D03*
X109982000Y-91948000D03*
X112776000Y-95758000D03*
X114046000Y-93726000D03*
X122936000Y-90297000D03*
D19*
X121920000Y-82804000D03*
X113919000Y-79375000D03*
M02*
