M48
;DRILL file {KiCad 4.0.4-1.fc24-product} date Wed May 17 10:49:34 2017
;FORMAT={-:-/ absolute / inch / decimal}
FMAT,2
INCH,TZ
T1C0.016
T2C0.028
T3C0.030
T4C0.035
T5C0.039
T6C0.039
T7C0.040
T8C0.126
%
G90
G05
M72
T1
X3.74Y-4.8159
X3.8299Y-4.7699
X3.905Y-3.5401
X3.985Y-3.535
X4.2474Y-3.4569
X4.265Y-3.3
X4.27Y-3.435
X4.28Y-3.515
X4.325Y-3.61
X4.375Y-3.555
X4.3759Y-3.425
X4.455Y-3.605
X4.46Y-3.7795
X4.485Y-3.13
X4.5235Y-3.7047
X4.53Y-3.83
X4.5448Y-3.7545
X4.5615Y-3.83
X4.5761Y-3.7508
X4.6378Y-3.5157
X4.6611Y-3.7411
X4.6729Y-3.5436
X4.6811Y-4.0984
X4.6921Y-3.8433
X4.7576Y-3.6197
X4.7649Y-3.734
X4.765Y-3.67
X4.7655Y-3.7026
X4.79Y-3.235
T2
X2.87Y-3.44
X2.87Y-4.48
X3.27Y-3.44
X3.31Y-4.48
X3.325Y-3.085
X3.4Y-3.69
X3.47Y-3.1754
X3.49Y-3.91
X3.49Y-4.61
X3.51Y-4.25
X3.63Y-3.31
X3.64Y-3.91
X3.71Y-4.61
X3.78Y-3.91
X3.8Y-3.755
X3.8Y-4.405
X3.83Y-3.58
X3.86Y-3.18
X3.905Y-2.89
X3.94Y-3.09
X3.97Y-4.7
X4.02Y-4.64
X4.055Y-4.165
X4.06Y-3.455
X4.09Y-4.05
X4.11Y-3.505
X4.11Y-4.27
X4.11Y-4.4
X4.19Y-3.0685
X4.2Y-3.87
X4.2008Y-3.5787
X4.24Y-2.94
X4.3Y-4.73
X4.3002Y-3.1397
X4.31Y-2.89
X4.31Y-2.94
X4.315Y-3.6852
X4.36Y-4.33
X4.4176Y-2.9924
X4.43Y-4.08
X4.46Y-3.38
X4.5054Y-3.4488
X4.52Y-3.55
X4.61Y-3.33
X4.61Y-3.85
X4.62Y-3.06
X4.6236Y-3.7529
X4.67Y-3.44
X4.68Y-3.27
X4.71Y-3.34
X4.77Y-3.16
X4.8Y-3.08
X4.965Y-3.68
T3
X4.1Y-3.1
X4.1Y-3.3
T4
X2.9799Y-3.6098
X2.9799Y-3.7189
X2.9799Y-3.8279
X2.9799Y-3.937
X2.9799Y-4.0461
X2.9799Y-4.1551
X2.9799Y-4.2642
X3.0919Y-3.5553
X3.0919Y-3.6644
X3.0919Y-3.7734
X3.0919Y-3.8825
X3.0919Y-3.9915
X3.0919Y-4.1006
X3.0919Y-4.2096
X3.0919Y-4.3187
T5
X4.5Y-4.38
X4.649Y-4.4654
X4.73Y-4.79
X4.76Y-4.54
T6
X4.722Y-4.2114
X4.722Y-4.3886
X4.978Y-4.2114
X4.978Y-4.3886
T7
X3.3433Y-2.9028
X3.3433Y-3.0028
X3.3433Y-4.8713
X3.3433Y-4.9713
X3.4433Y-2.9028
X3.4433Y-3.0028
X3.4433Y-4.8713
X3.4433Y-4.9713
X3.5433Y-2.9028
X3.5433Y-3.0028
X3.5433Y-4.8713
X3.5433Y-4.9713
X3.6433Y-2.9028
X3.6433Y-3.0028
X3.6433Y-4.8713
X3.6433Y-4.9713
X3.7433Y-2.9028
X3.7433Y-3.0028
X3.7433Y-4.8713
X3.7433Y-4.9713
X4.75Y-3.85
X4.75Y-3.95
X4.85Y-3.85
X4.85Y-3.95
X4.95Y-3.85
X4.95Y-3.95
T8
X3.0359Y-3.281
X3.0359Y-4.593
T0
M30
