<?xml version="1.0" encoding="UTF-8" standalone="no"?>
<!-- Created with Inkscape (http://www.inkscape.org/) -->

<svg
   xmlns:dc="http://purl.org/dc/elements/1.1/"
   xmlns:cc="http://creativecommons.org/ns#"
   xmlns:rdf="http://www.w3.org/1999/02/22-rdf-syntax-ns#"
   xmlns:svg="http://www.w3.org/2000/svg"
   xmlns="http://www.w3.org/2000/svg"
   xmlns:sodipodi="http://sodipodi.sourceforge.net/DTD/sodipodi-0.dtd"
   xmlns:inkscape="http://www.inkscape.org/namespaces/inkscape"
   id="svg3390"
   version="1.1"
   inkscape:version="0.91 r13725"
   width="9.5mm"
   height="9.5mm"
   viewBox="0 0 33.661417 33.661417"
   sodipodi:docname="cat-dithered.svg">
  <metadata
     id="metadata3396">
    <rdf:RDF>
      <cc:Work
         rdf:about="">
        <dc:format>image/svg+xml</dc:format>
        <dc:type
           rdf:resource="http://purl.org/dc/dcmitype/StillImage" />
        <dc:title></dc:title>
      </cc:Work>
    </rdf:RDF>
  </metadata>
  <defs
     id="defs3394" />
  <sodipodi:namedview
     pagecolor="#ffffff"
     bordercolor="#666666"
     borderopacity="1"
     objecttolerance="10"
     gridtolerance="10"
     guidetolerance="10"
     inkscape:pageopacity="0"
     inkscape:pageshadow="2"
     inkscape:window-width="1362"
     inkscape:window-height="746"
     id="namedview3392"
     showgrid="false"
     units="mm"
     inkscape:zoom="4.8525203"
     inkscape:cx="27.426769"
     inkscape:cy="22.133809"
     inkscape:window-x="0"
     inkscape:window-y="18"
     inkscape:window-maximized="0"
     inkscape:current-layer="svg3390" />
  <path
     style="fill:#000000"
     d="m 15.512597,32.775587 -3.982673,0 0,-0.269291 0,-0.269291 -1.062996,0 -1.0629867,0 0,-0.255123 0,-0.255113 -0.5385818,0 -0.5385908,0 0,-0.269291 0,-0.269291 -0.2692909,0 -0.2692909,0 0,-0.538582 0,-0.538582 -0.2692908,0 -0.2692909,0 0,-0.255123 0,-0.255114 -0.2551139,0 -0.2551229,0 0,-0.538581 0,-0.538582 -0.2692909,0 -0.2692909,0 0,-0.255123 0,-0.255114 -0.2692909,0 -0.2692909,0 0,-0.269291 0,-0.269291 -0.2551139,0 -0.2551229,0 0,-0.269291 0,-0.269291 -0.2692909,0 -0.2692909,0 0,-1.062995 0,-1.062996 -0.2692909,0 -0.2692909,0 0,-0.793695 0,-0.793705 0.2692909,0 0.2692909,0 0,-1.062987 0,-1.062995 0.2692909,0 0.2692909,0 0,-0.538582 0,-0.538582 0.5244138,0 0.5244048,0 0,1.062987 0,1.062995 -0.2692909,0 -0.2692909,0 0,1.062996 0,1.062986 -0.2551139,0 -0.2551229,0 0,0.269291 0,0.269291 0.2551229,0 0.2551139,0 0,0.269291 0,0.269291 0.2692909,0 0.2692909,0 0,-0.538582 0,-0.538582 0.2692909,0 0.2692909,0 0,-0.793695 0,-0.793705 0.2551229,0 0.2551139,0 0,-0.793696 0,-0.793704 0.5385817,0 0.5385818,0 0,-0.538582 0,-0.538582 0.2692999,0 0.2692909,0 0,-0.255123 0,-0.255114 -1.8567002,0 -1.8566913,0 0,-1.062995 0,-1.062987 0.2551229,0 0.2551139,0 0,-0.269291 0,-0.269291 0.2692909,0 0.2692909,0 0,-0.269291 0,-0.26929 0.2692909,0 0.2692909,0 0,0.26929 0,0.269291 1.3322864,0 1.3322865,0 0,-0.269291 0,-0.26929 0.2551139,0 0.2551229,0 0,0.26929 0,0.269291 0.5385819,0 0.538582,0 0,-0.269291 0,-0.26929 -0.269291,0 -0.269291,0 0,-0.269291 0,-0.269291 -0.269291,0 -0.2692909,0 0,-0.524414 0,-0.524405 -0.2551229,0 -0.2551139,0 0,0.524405 0,0.524414 -0.2692909,0 -0.2692909,0 0,-0.2693 0,-0.269291 -0.2692909,0 -0.2692999,0 0,-0.255114 0,-0.255114 0.2692999,0 0.2692909,0 0,-0.2693 0,-0.269291 0.2692909,0 0.2692909,0 0,-0.524404 0,-0.524414 0.2551139,0 0.2551229,0 0,-0.269291 0,-0.269291 0.2692909,0 0.269291,0 0,-0.538582 0,-0.538582 0.269291,0 0.269291,0 0,0.269291 0,0.269291 0.524405,0 0.524413,0 0,0.269291 0,0.269291 0.538582,0 0.538582,0 0,0.269291 0,0.269291 0.269291,0 0.269291,0 0,0.255123 0,0.255114 0.255114,0 0.255122,0 0,0.538581 0,0.538591 0.269291,0 0.269291,0 0,0.524405 0,0.524414 -0.524405,0 -0.524413,0 0,-0.524414 0,-0.524405 -0.269291,0 -0.269291,0 0,0.524405 0,0.524414 -0.269291,0 -0.269291,0 0,0.269291 0,0.269291 -0.269291,0 -0.269291,0 0,0.26929 0,0.269291 -0.524413,0 -0.524405,0 0,0.269291 0,0.269291 0.524405,0 0.524413,0 0,0.255114 0,0.255123 0.269291,0 0.269291,0 0,0.269291 0,0.269291 0.269291,0 0.269291,0 0,0.538581 0,0.538582 -0.269291,0 -0.269291,0 0,0.255114 0,0.255123 -0.269291,0 -0.269291,0 0,0.269291 0,0.269291 -0.255123,0 -0.255113,0 0,0.538582 0,0.538581 -0.538582,0 -0.538582,0 0,0.524414 0,0.524405 -0.269291,0 -0.2692909,0 0,0.269291 0,0.269291 -0.5244138,0 -0.5244048,0 0,0.269291 0,0.269291 0.2692909,0 0.2692909,0 0,0.255123 0,0.255113 -0.2692909,0 -0.2692909,0 0,0.538582 0,0.538582 -0.2692909,0 -0.2692999,0 0,0.524414 0,0.524405 0.2692999,0 0.2692909,0 0,-0.255114 0,-0.255114 0.2692909,0 0.2692909,0 0,0.255114 0,0.255114 0.2551139,0 0.2551229,0 0,-0.255114 0,-0.255114 0.5385819,0 0.538582,0 0,0.524405 0,0.524413 0.269291,0 0.269291,0 0,0.269291 0,0.269291 0.255113,0 0.255123,0 0,-0.269291 0,-0.269291 0.269291,0 0.269291,0 0,0.538582 0,0.538582 0.793696,0 0.793704,0 0,-0.269291 0,-0.269291 0.269291,0 0.269291,0 0,0.269291 0,0.269291 1.062996,0 1.062986,0 0,0.255114 0,0.255123 0.538582,0 0.538582,0 0,0.538582 0,0.538581 -0.269291,0 -0.269291,0 0,0.255114 0,0.255123 -0.538582,0 -0.538581,0 0,-0.255123 0,-0.255114 -0.269291,0 -0.269291,0 0,0.255114 0,0.255123 -0.255114,0 -0.255123,0 0,0.269291 0,0.269291 0.524414,0 0.524405,0 0,0.269291 0,0.269291 0.269291,0 0.26929,0 0,-0.269291 0,-0.269291 1.062996,0 1.062987,0 0,-0.269291 0,-0.269291 0.538581,0 0.538591,0 0,0.269291 0,0.269291 0.255114,0 0.255114,0 0,-0.524414 0,-0.524405 -0.524405,0 -0.524414,0 0,-0.269291 0,-0.26929 0.793705,0 0.793705,0 0,-0.269291 0,-0.269291 0.269291,0 0.269291,0 0,-0.255123 0,-0.255114 0.26929,0 0.269291,0 0,-0.269291 0,-0.269291 0.524405,0 0.524414,0 0,0.269291 0,0.269291 0.269291,0 0.269291,0 0,0.255114 0,0.255123 -0.269291,0 -0.269291,0 0,0.269291 0,0.269291 0.269291,0 0.269291,0 0,0.26929 0,0.269291 0.524405,0 0.524413,0 0,-0.269291 0,-0.26929 -0.255123,0 -0.255113,0 0,-0.269291 0,-0.269291 0.255113,0 0.255123,0 0,0.269291 0,0.269291 0.807873,0 0.807873,0 0,-0.269291 0,-0.269291 0.793704,0 0.793696,0 0,-0.255123 0,-0.255114 0.524414,0 0.524405,0 0,-0.538582 0,-0.538582 0.269291,0 0.26929,0 0,-0.269299 0,-0.269291 -0.524404,0 -0.524414,0 0,-0.255114 0,-0.255114 -1.062987,0 -1.062995,0 0,0.255114 0,0.255114 -0.269291,0 -0.269291,0 0,-0.255114 0,-0.255114 0.269291,0 0.269291,0 0,-0.2693 0,-0.269291 0.793704,0 0.793696,0 0,-0.538582 0,-0.538582 0.269291,0 0.269291,0 0,-0.524404 0,-0.524414 0.524414,0 0.524404,0 0,0.269291 0,0.269291 0.269291,0 0.269291,0 0,0.255123 0,0.255113 0.255123,0 0.255114,0 0,0.269291 0,0.269291 0.269291,0 0.269291,0 0,1.332287 0,1.332286 -0.269291,0 -0.269291,0 0,0.269291 0,0.269291 -0.255114,0 -0.255123,0 0,0.255114 0,0.255123 -0.269291,0 -0.269291,0 0,0.269291 0,0.269291 -0.793695,0 -0.793705,0 0,0.26929 0,0.269291 -0.538582,0 -0.538581,0 0,0.255114 0,0.255123 -0.255114,0 -0.255123,0 0,0.269291 0,0.269291 -0.538582,0 -0.538582,0 0,0.269291 0,0.269291 -0.793705,0 -0.793695,0 0,0.269291 0,0.269291 -0.793705,0 -0.793696,0 0,0.255113 0,0.255123 -1.332286,0 -1.332287,0 0,0.269291 0,0.269291 -3.982673,0 z m -2.664564,-2.125982 0.269291,0 0,-0.269291 0,-0.269291 -0.269291,0 -0.269291,0 0,0.269291 0,0.269291 0.269291,0 z m 1.5874,0 0.269291,0 0,-0.524414 0,-0.524405 -0.269291,0 -0.269291,0 0,0.524405 0,0.524414 0.269291,0 z m -3.444091,-0.538582 0.538582,0 0,-0.255123 0,-0.255114 -0.538582,0 -0.538582,0 0,0.255114 0,0.255123 0.538582,0 z m 10.89921,0 0.269291,0 0,-0.255123 0,-0.255114 0.524405,0 0.524414,0 0,-0.269291 0,-0.26929 -0.524414,0 -0.524405,0 0,0.26929 0,0.269291 -0.269291,0 -0.26929,0 0,0.255114 0,0.255123 0.26929,0 z m -12.7559016,-0.510237 0.2692909,0 0,-0.269291 0,-0.26929 -0.2692909,0 -0.2692909,0 0,0.26929 0,0.269291 0.2692909,0 z m -1.0771726,-2.664564 0.2692909,0 0,-0.269299 0,-0.269291 -0.2692909,0 -0.2692909,0 0,0.269291 0,0.269299 0.2692909,0 z m 1.0771726,0 0.2692909,0 0,-0.269299 0,-0.269291 -0.2692909,0 -0.2692909,0 0,0.269291 0,0.269299 0.2692909,0 z m -2.9338638,-8.503937 0.5385818,0 0,-0.269291 0,-0.269291 -0.5385818,0 -0.5385818,0 0,0.269291 0,0.269291 0.5385818,0 z m 0.2692909,-1.048819 0.2692909,0 0,-0.269291 0,-0.269291 -0.2692909,0 -0.2692909,0 0,0.269291 0,0.269291 0.2692909,0 z m 8.2346465,7.426765 -0.538582,0 0,-0.269291 0,-0.269291 0.269291,0 0.269291,0 0,-0.255113 0,-0.255123 -0.269291,0 -0.269291,0 0,-0.269291 0,-0.269291 0.269291,0 0.269291,0 0,-0.269291 0,-0.269291 0.269291,0 0.269291,0 0,0.269291 0,0.269291 0.524414,0 0.524405,0 0,-0.538582 0,-0.538582 0.269291,0 0.26929,0 0,-0.524405 0,-0.524413 0.269291,0 0.269291,0 0,-0.269291 0,-0.269291 0.269291,0 0.269291,0 0,-0.269291 0,-0.269291 0.255123,0 0.255114,0 0,-0.255123 0,-0.255114 0.269291,0 0.269291,0 0,-0.269291 0,-0.269291 0.26929,0 0.269291,0 0,0.269291 0,0.269291 0.2693,0 0.269291,0 0,0.255114 0,0.255123 0.524405,0 0.524414,0 0,0.269291 0,0.269291 0.538582,0 0.538581,0 0,0.269291 0,0.269291 0.255114,0 0.255123,0 0,0.269291 0,0.26929 0.269291,0 0.269291,0 0,-0.26929 0,-0.269291 0.269291,0 0.269291,0 0,0.269291 0,0.26929 -0.269291,0 -0.269291,0 0,0.255123 0,0.255114 0.269291,0 0.269291,0 0,0.269291 0,0.269291 -0.538582,0 -0.538582,0 0,-0.269291 0,-0.269291 -0.255123,0 -0.255114,0 0,-0.255114 0,-0.255123 -0.538581,0 -0.538582,0 0,-0.26929 0,-0.269291 -0.524414,0 -0.524405,0 0,-0.269291 0,-0.269291 -0.807882,0 -0.807872,0 0,0.538582 0,0.538581 -0.255114,0 -0.255123,0 0,0.255123 0,0.255114 -0.269291,0 -0.269291,0 0,0.269291 0,0.269291 -0.269291,0 -0.269291,0 0,0.538582 0,0.538582 -0.26929,0 -0.269291,0 0,0.255123 0,0.255113 -0.524405,0 -0.524414,0 0,0.269291 0,0.269291 -0.538582,0 z m 0.269291,-1.048818 0.269291,0 0,-0.269291 0,-0.269291 -0.269291,0 -0.269291,0 0,0.269291 0,0.269291 0.269291,0 z m 15.930703,0 -0.269291,0 0,-0.269291 0,-0.269291 -0.255114,0 -0.255123,0 0,-0.538582 0,-0.538582 0.255123,0 0.255114,0 0,-0.255114 0,-0.255123 0.269291,0 0.269291,0 0,0.255123 0,0.255114 -0.269291,0 -0.269291,0 0,0.269291 0,0.269291 0.269291,0 0.269291,0 0,0.538582 0,0.538582 -0.269291,0 z m -16.993698,-1.077164 -0.255114,0 0,-0.269291 0,-0.269291 0.255114,0 0.255122,0 0,0.269291 0,0.269291 -0.255122,0 z m 1.062995,-0.538582 -0.269291,0 0,-0.255114 0,-0.255123 0.269291,0 0.269291,0 0,0.255123 0,0.255114 -0.269291,0 z m 9.566924,0 -0.255113,0 0,-0.255114 0,-0.255123 0.255113,0 0.255123,0 0,0.255123 0,0.255114 -0.255123,0 z m 5.31496,-0.510237 -0.269291,0 0,-0.26929 0,-0.269291 0.269291,0 0.269291,0 0,0.269291 0,0.26929 -0.269291,0 z m -16.469284,-1.077163 -0.269291,0 0,-0.269291 0,-0.269291 0.269291,0 0.269291,0 0,0.269291 0,0.269291 -0.269291,0 z m 16.199993,0 -0.538581,0 0,-0.269291 0,-0.269291 -0.255114,0 -0.255123,0 0,-0.255123 0,-0.255114 -0.269291,0 -0.269291,0 0,-0.807872 0,-0.807873 0.269291,0 0.269291,0 0,0.269291 0,0.269291 0.255123,0 0.255114,0 0,0.269291 0,0.26929 0.269291,0 0.26929,0 0,0.524405 0,0.524414 0.269291,0 0.269291,0 0,0.269291 0,0.269291 -0.538582,0 z m -11.154324,-2.664564 -0.524414,0 0,-0.255123 0,-0.255114 -0.269291,0 -0.269291,0 0,-0.269291 0,-0.269291 -0.807872,0 -0.807873,0 0,-0.538581 0,-0.538582 0.269291,0 0.269291,0 0,-0.2693 0,-0.269291 0.538581,0 0.538582,0 0,0.269291 0,0.2693 0.793705,0 0.793696,0 0,-0.2693 0,-0.269291 0.793704,0 0.793696,0 0,0.538591 0,0.538582 -0.255114,0 -0.255114,0 0,0.26929 0,0.269291 -0.269291,0 -0.2693,0 0,0.269291 0,0.269291 -0.269291,0 -0.26929,0 0,0.255114 0,0.255123 -0.524405,0 z m 7.440942,-0.510237 -0.538582,0 0,-0.269291 0,-0.269291 -0.269291,0 -0.269291,0 0,-0.269291 0,-0.26929 -0.255123,0 -0.255113,0 0,-0.269291 0,-0.269291 -0.269291,0 -0.269291,0 0,-0.2693 0,-0.269291 0.524405,0 0.524413,0 0,-0.255114 0,-0.255114 0.538582,0 0.538582,0 0,-0.538591 0,-0.538581 0.524414,0 0.524405,0 0,0.26929 0,0.269291 0.807872,0 0.807873,0 0,0.269291 0,0.2693 -0.269291,0 -0.269291,0 0,0.255114 0,0.255114 -0.538582,0 -0.538581,0 0,0.269291 0,0.2693 -0.524405,0 -0.524414,0 0,0.269291 0,0.269291 0.269291,0 0.269291,0 0,0.538581 0,0.538582 -0.538582,0 z m -20.9905489,-0.538582 -0.2692909,0 0,-0.538581 0,-0.538582 0.5244138,0 0.5244048,0 0,0.269291 0,0.269291 -0.2551139,0 -0.2551229,0 0,0.26929 0,0.269291 -0.2692909,0 z m 2.636219,-0.538581 -0.2692909,0 0,-0.269291 0,-0.269291 0.2692909,0 0.2692908,0 0,0.269291 0,0.269291 -0.2692908,0 z m 15.6897659,-1.587401 -0.538582,0 0,-0.2693 0,-0.269291 -0.255123,0 -0.255114,0 0,-0.269291 0,-0.26929 -0.269291,0 -0.26929,0 0,-0.524405 0,-0.524414 -0.269291,0 -0.269291,0 0,0.524414 0,0.524405 -0.269291,0 -0.2693,0 0,-0.793696 0,-0.793705 0.2693,0 0.269291,0 0,-0.524405 0,-0.524413 0.538582,0 0.538581,0 0,-0.269291 0,-0.269291 0.793696,0 0.793705,0 0,0.269291 0,0.269291 0.269291,0 0.269291,0 0,0.255122 0,0.255114 0.255113,0 0.255123,0 0,0.269291 0,0.269291 0.269291,0 0.269291,0 0,0.793705 0,0.793696 -0.269291,0 -0.269291,0 0,-0.524405 0,-0.524414 -0.255123,0 -0.255113,0 0,0.793705 0,0.793695 -0.269291,0 -0.269291,0 0,0.269291 0,0.2693 -0.538582,0 z m 0.807873,-2.125991 0.269291,0 0,-0.269291 0,-0.269291 -0.269291,0 -0.269291,0 0,0.269291 0,0.269291 0.269291,0 z m -18.6094441,1.5874 -0.2551229,0 0,-0.269291 0,-0.26929 0.2551229,0 0.2551139,0 0,0.26929 0,0.269291 -0.2551139,0 z m 10.0913381,-0.538581 -0.255123,0 0,-0.255114 0,-0.255123 -0.269291,0 -0.269291,0 0,-0.269291 0,-0.269291 -0.269291,0 -0.269291,0 0,-0.269291 0,-0.269291 -0.255122,0 -0.255114,0 0,-0.524405 0,-0.524413 0.255114,0 0.255122,0 0,-0.269291 0,-0.269291 0.269291,0 0.269291,0 0,0.269291 0,0.269291 0.269291,0 0.269291,0 0,0.255122 0,0.255114 0.255123,0 0.255114,0 0,1.062996 0,1.062987 -0.255114,0 z m -9.5669333,-0.510237 -0.2692909,0 0,-0.269291 0,-0.269291 -0.2551139,0 -0.2551229,0 0,-0.269291 0,-0.269291 -0.2692909,0 -0.2692909,0 0,-0.269291 0,-0.269291 -0.2692909,0 -0.2692909,0 0,-0.793695 0,-0.7937054 -0.2692909,0 -0.2692909,0 0,-0.269291 0,-0.269291 -0.5244048,0 -0.5244138,0 0,-2.3811051 0,-2.3810961 0.5244138,0 0.5244048,0 0,-0.2692909 0,-0.2692909 0.5385818,0 0.5385818,0 0,0.5244048 0,0.5244138 0.5244138,0 0.5244048,0 0,0.2692909 0,0.2692909 0.2692909,0 0.2692909,0 0,0.2692909 0,0.2692909 0.5244138,0 0.5244048,0 0,0.2551139 0,0.2551229 0.5385817,0 0.5385818,0 0,0.2692909 0,0.2692909 0.2692999,0 0.2692909,0 0,0.2692908 0,0.2692909 0.5244048,0 0.5244138,0 0,0.2692909 0,0.2692906 0.2692909,0 0.269291,0 0,0.269291 0,0.269291 0.269291,0 0.269291,0 0,0.524414 0,0.524405 -0.269291,0 -0.269291,0 0,0.2692914 0,0.269291 -0.5244139,0 -0.5244048,0 0,-0.269291 0,-0.2692914 -0.2692909,0 -0.2692909,0 0,-0.524405 0,-0.524414 -0.2692909,0 -0.2692999,0 0,-0.269291 0,-0.269291 -0.2692909,0 -0.2692909,0 0,-0.5385815 0,-0.5385817 -0.2692908,0 -0.2692909,0 0,-0.2692909 0,-0.2692909 -0.5244048,0 -0.5244138,0 0,-0.2551229 0,-0.2551139 -0.7936957,0 -0.7937047,0 0,1.3322774 0,1.3322864 0.2692909,0 0.2692909,0 0,0.255123 0,0.255114 0.2551229,0 0.2551139,0 0,0.269291 0,0.269291 -0.2551139,0 -0.2551229,0 0,0.5385824 0,0.538582 0.5244138,0 0.5244048,0 0,0.255122 0,0.255114 -0.2692909,0 -0.2692909,0 0,0.538582 0,0.538582 0.2692909,0 0.2692909,0 0,0.269291 0,0.269291 -0.2692909,0 z m -2.1259822,-0.538582 -0.2692909,0 0,-0.269291 0,-0.269291 0.2692909,0 0.2692909,0 0,0.269291 0,0.269291 -0.2692909,0 z m 9.0425195,-0.538582 -0.269291,0 0,-0.524405 0,-0.524413 -0.269291,0 -0.269291,0 0,-0.269291 0,-0.269291 0.538582,0 0.538582,0 0,0.793704 0,0.793696 -0.269291,0 z m -9.5669243,-0.538582 -0.2551229,0 0,-0.255114 0,-0.255122 0.2551229,0 0.2551139,0 0,0.255122 0,0.255114 -0.2551139,0 z m 15.9448703,-0.510236 -0.26929,0 0,-0.538582 0,-0.5385824 0.26929,0 0.269291,0 0,0.5385824 0,0.538582 -0.269291,0 z m 1.58741,-0.538582 -0.2693,0 0,-0.5385824 0,-0.538582 0.2693,0 0.269291,0 0,0.538582 0,0.5385824 -0.269291,0 z m -9.028352,-0.5385824 -0.255113,0 0,-0.524405 0,-0.524414 0.255113,0 0.255123,0 0,0.524414 0,0.524405 -0.255123,0 z m 4.776379,0 -0.269291,0 0,-0.269291 0,-0.269291 -0.269291,0 -0.269291,0 0,-0.255114 0,-0.255123 0.538582,0 0.538581,0 0,0.524414 0,0.524405 -0.26929,0 z m -2.125983,-0.538582 -0.269291,0 0,-0.255114 0,-0.255123 0.269291,0 0.269291,0 0,0.255123 0,0.255114 -0.269291,0 z m 12.755902,-0.510237 -0.26929,0 0,-0.8078726 0,-0.8078726 -0.524405,0 -0.524414,0 0,-1.8566913 0,-1.8566913 -0.269291,0 -0.269291,0 0,-0.5244138 0,-0.5244048 -0.269291,0 -0.269291,0 0,-0.2692999 0,-0.2692909 -0.524413,0 -0.524405,0 0,0.5244138 0,0.5244048 -0.269291,0 -0.269291,0 0,0.5385908 0,0.5385818 -0.524414,0 -0.524405,0 0,-0.2692909 0,-0.2692909 0.255114,0 0.255123,0 0,-0.2692999 0,-0.2692909 0.269291,0 0.269291,0 0,-0.5244048 0,-0.5244138 0.269291,0 0.269291,0 0,-0.2692909 0,-0.2692909 0.524405,0 0.524413,0 0,-0.2692909 0,-0.26929094 0.538582,0 0.538582,0 0,0.26929094 0,0.2692909 0.269291,0 0.269291,0 0,0.5385818 0,0.5385908 0.255123,0 0.255114,0 0,1.3181095 0,1.3181095 0.26929,0 0.269291,0 0,1.8708593 0,1.8708681 -0.269291,0 z m -6.363778,-0.538582 -0.793696,0 0,-0.8078724 0,-0.8078726 0.255114,0 0.255114,0 0,-0.5244138 0,-0.5244048 0.2693,0 0.269291,0 0,-0.2692909 0,-0.2692909 0.269291,0 0.269291,0 0,-0.2551229 0,-0.2551139 0.26929,0 0.269291,0 0,0.7936957 0,0.7937047 -0.269291,0 -0.26929,0 0,0.5244048 0,0.5244138 -0.269291,0 -0.269291,0 0,0.2692908 0,0.2692909 0.269291,0 0.269291,0 0,0.2692909 0,0.2692906 -0.793705,0 z"
     id="path3796"
     inkscape:connector-curvature="0" />
</svg>
